<?xml version="1.0" encoding="UTF-8"?>
<svg id="Camada_2" data-name="Camada 2" xmlns="http://www.w3.org/2000/svg" xmlns:xlink="http://www.w3.org/1999/xlink" viewBox="0 0 648.29 883.41">
  <defs>
    <style>
      .cls-1, .cls-2 {
        font-size: 21.43px;
      }

      .cls-1, .cls-2, .cls-3, .cls-4, .cls-5, .cls-6, .cls-7, .cls-8 {
        fill: #1d1d1b;
      }

      .cls-1, .cls-9, .cls-10, .cls-3, .cls-11, .cls-7, .cls-8 {
        font-family: SpaceGrotesk-Bold, 'Space Grotesk';
        font-variation-settings: 'wght' 700;
        font-weight: 700;
      }

      .cls-12 {
        letter-spacing: -.02em;
      }

      .cls-13 {
        letter-spacing: -.03em;
      }

      .cls-14 {
        letter-spacing: -.03em;
      }

      .cls-15 {
        stroke: url(#Gradiente_sem_nome_20-2);
      }

      .cls-15, .cls-16, .cls-17, .cls-18, .cls-19, .cls-20, .cls-21, .cls-22, .cls-23 {
        stroke-miterlimit: 10;
      }

      .cls-15, .cls-16, .cls-17, .cls-19, .cls-22, .cls-23 {
        fill: #ededed;
      }

      .cls-24 {
        fill: #ffb522;
      }

      .cls-24, .cls-25, .cls-26, .cls-27, .cls-6 {
        stroke-width: 0px;
      }

      .cls-16 {
        stroke: url(#Gradiente_sem_nome_20-3);
      }

      .cls-28, .cls-4, .cls-5 {
        font-family: SpaceGrotesk-Light, 'Space Grotesk';
        font-variation-settings: 'wght' 300;
        font-weight: 300;
      }

      .cls-29 {
        clip-path: url(#clippath-2);
      }

      .cls-30 {
        letter-spacing: -.04em;
      }

      .cls-31 {
        letter-spacing: -.02em;
      }

      .cls-10 {
        letter-spacing: -.03em;
      }

      .cls-25, .cls-18, .cls-20 {
        fill: none;
      }

      .cls-17 {
        stroke: url(#Gradiente_sem_nome_20);
      }

      .cls-32 {
        clip-path: url(#clippath-1);
      }

      .cls-33 {
        clip-path: url(#clippath-4);
      }

      .cls-3 {
        font-size: 12.3px;
      }

      .cls-26 {
        fill: #f6f6f6;
      }

      .cls-4, .cls-8 {
        font-size: 25.1px;
      }

      .cls-34, .cls-11 {
        letter-spacing: -.03em;
      }

      .cls-35 {
        clip-path: url(#clippath);
      }

      .cls-18, .cls-20 {
        stroke-width: 2px;
      }

      .cls-18, .cls-21 {
        stroke: #1d1d1b;
      }

      .cls-19 {
        stroke: url(#Gradiente_sem_nome_20-4);
      }

      .cls-36 {
        clip-path: url(#clippath-3);
      }

      .cls-20 {
        stroke: #ffb522;
      }

      .cls-21 {
        fill: #fff;
      }

      .cls-37 {
        clip-path: url(#clippath-5);
      }

      .cls-5 {
        font-size: 20.24px;
      }

      .cls-38 {
        letter-spacing: 0em;
      }

      .cls-27 {
        fill: #e8a021;
      }

      .cls-39 {
        letter-spacing: -.03em;
      }

      .cls-7 {
        font-size: 17.78px;
      }

      .cls-40 {
        letter-spacing: -.01em;
      }

      .cls-41 {
        letter-spacing: 0em;
      }

      .cls-22 {
        stroke: url(#Gradiente_sem_nome_20-5);
      }

      .cls-23 {
        stroke: url(#Gradiente_sem_nome_20-6);
      }
    </style>
    <clipPath id="clippath">
      <rect class="cls-25" x="124.16" y="620.96" width="70.59" height="70.59"/>
    </clipPath>
    <linearGradient id="Gradiente_sem_nome_20" data-name="Gradiente sem nome 20" x1="120.37" y1="656.25" x2="198.54" y2="656.25" gradientUnits="userSpaceOnUse">
      <stop offset="0" stop-color="#252e38"/>
      <stop offset="1" stop-color="#263343"/>
    </linearGradient>
    <clipPath id="clippath-1">
      <rect class="cls-25" x="469.26" y="721.24" width="70.59" height="70.59"/>
    </clipPath>
    <linearGradient id="Gradiente_sem_nome_20-2" data-name="Gradiente sem nome 20" x1="465.47" y1="756.54" x2="543.63" y2="756.54" xlink:href="#Gradiente_sem_nome_20"/>
    <clipPath id="clippath-2">
      <rect class="cls-25" x="260.45" y="401.43" width="48.84" height="48.84"/>
    </clipPath>
    <linearGradient id="Gradiente_sem_nome_20-3" data-name="Gradiente sem nome 20" x1="257.67" y1="425.85" x2="312.06" y2="425.85" xlink:href="#Gradiente_sem_nome_20"/>
    <clipPath id="clippath-3">
      <rect class="cls-25" x="499.22" y="470.83" width="48.84" height="48.84"/>
    </clipPath>
    <linearGradient id="Gradiente_sem_nome_20-4" data-name="Gradiente sem nome 20" x1="496.44" y1="495.24" x2="550.83" y2="495.24" xlink:href="#Gradiente_sem_nome_20"/>
    <clipPath id="clippath-4">
      <rect class="cls-25" x="260.45" y="214.06" width="48.84" height="48.84"/>
    </clipPath>
    <linearGradient id="Gradiente_sem_nome_20-5" data-name="Gradiente sem nome 20" x1="257.67" y1="238.48" x2="312.06" y2="238.48" xlink:href="#Gradiente_sem_nome_20"/>
    <clipPath id="clippath-5">
      <rect class="cls-25" x="499.22" y="283.45" width="48.84" height="48.84"/>
    </clipPath>
    <linearGradient id="Gradiente_sem_nome_20-6" data-name="Gradiente sem nome 20" x1="496.44" y1="307.87" x2="550.83" y2="307.87" xlink:href="#Gradiente_sem_nome_20"/>
  </defs>
  <g id="Camada_1-2" data-name="Camada 1">
    <g>
      <rect class="cls-26" x="0" width="648.29" height="883.41" rx="41.55" ry="41.55"/>
      <g>
        <polyline class="cls-18" points="590.21 267.15 604.77 267.15 604.77 455.2 590.21 455.2"/>
        <polyline class="cls-18" points="604.53 365.88 624.97 365.88 624.97 699.9 590.21 699.9"/>
      </g>
      <text class="cls-8" transform="translate(266.86 44.72)"><tspan class="cls-30" x="0" y="0">F</tspan><tspan class="cls-41" x="12.3" y="0">ASE FINA</tspan><tspan class="cls-14" x="116.47" y="0">L</tspan></text>
      <text class="cls-4" transform="translate(263.07 153.07)"><tspan x="0" y="0">SEMI FINAIS</tspan></text>
      <text class="cls-8" transform="translate(128.95 87.56)"><tspan x="0" y="0">Sor</tspan><tspan class="cls-31" x="40.51" y="0">t</tspan><tspan class="cls-41" x="51.51" y="0">eio dos Co</tspan><tspan class="cls-40" x="176.84" y="0">n</tspan><tspan x="191.95" y="0">f</tspan><tspan class="cls-31" x="202.9" y="0">r</tspan><tspan x="212.38" y="0">o</tspan><tspan class="cls-40" x="227.75" y="0">n</tspan><tspan class="cls-31" x="242.86" y="0">t</tspan><tspan x="253.85" y="0">os em b</tspan><tspan class="cls-31" x="347.05" y="0">r</tspan><tspan class="cls-40" x="356.54" y="0">ev</tspan><tspan class="cls-38" x="384.08" y="0">e</tspan><tspan class="cls-39" x="398.41" y="0">.</tspan></text>
      <polyline class="cls-18" points="0 290.46 34.68 290.46 34.68 264.44 67.78 264.44"/>
      <polyline class="cls-18" points="0 661.98 34.68 661.98 34.68 457.32 67.78 457.32"/>
      <g>
        <rect class="cls-24" x="67.78" y="561.26" width="522.44" height="255.64" rx="27.36" ry="27.36"/>
        <text class="cls-2" transform="translate(224.56 596.84)"><tspan class="cls-9" x="0" y="0">GRANDE FINA</tspan><tspan class="cls-11" x="132.29" y="0">L</tspan><tspan class="cls-10" x="143.26" y="0" xml:space="preserve"> -</tspan><tspan class="cls-9" x="156.84" y="0"> </tspan><tspan class="cls-28" x="162.29" y="0">MD5</tspan></text>
        <path class="cls-6" d="m321.16,717.89l6.22-8.64-6.15-8.5h5.05l3.9,5.7h.62l3.91-5.7h5.04l-6.15,8.5,6.22,8.64h-5.11l-3.91-5.77h-.62l-3.9,5.77h-5.12Z"/>
        <g>
          <rect class="cls-21" x="156.44" y="635.09" width="387.98" height="45.77"/>
          <text class="cls-7" transform="translate(233.63 664.37)"><tspan x="0" y="0">VENCEDOR SEMIFINA</tspan><tspan class="cls-13" x="172.06" y="0">L</tspan><tspan x="181.17" y="0" xml:space="preserve"> 1</tspan></text>
        </g>
        <g>
          <rect class="cls-21" x="120.87" y="735.38" width="383.68" height="45.77"/>
          <text class="cls-7" transform="translate(232.37 765.61)"><tspan x="0" y="0">VENCEDOR SEMIFINA</tspan><tspan class="cls-13" x="172.06" y="0">L</tspan><tspan x="181.17" y="0" xml:space="preserve"> 2</tspan></text>
        </g>
        <g>
          <g class="cls-35">
            <rect class="cls-17" x="120.87" y="617.67" width="77.16" height="77.16"/>
          </g>
          <path class="cls-27" d="m194.75,620.96v70.58h-70.58v-70.58h70.58m4-4h-78.58v78.58h78.58v-78.58h0Z"/>
        </g>
        <g>
          <g class="cls-32">
            <rect class="cls-15" x="465.97" y="717.96" width="77.16" height="77.16"/>
          </g>
          <path class="cls-27" d="m539.84,721.24v70.58h-70.58v-70.58h70.58m4-4h-78.58v78.58h78.58v-78.58h0Z"/>
        </g>
      </g>
      <g>
        <rect class="cls-20" x="67.78" y="373.89" width="522.44" height="172.75" rx="27.36" ry="27.36"/>
        <g>
          <text class="cls-1" transform="translate(103.94 453.18)"><tspan x="0" y="0">SEMIFINA</tspan><tspan class="cls-34" x="94.45" y="0">L</tspan><tspan x="105.42" y="0" xml:space="preserve"> 2</tspan></text>
          <text class="cls-5" transform="translate(144.25 480.03)"><tspan x="0" y="0">MD3</tspan></text>
        </g>
        <g>
          <path class="cls-6" d="m396.75,468.5l4.3-5.98-4.26-5.88h3.49l2.7,3.95h.43l2.7-3.95h3.49l-4.26,5.88,4.3,5.98h-3.54l-2.7-3.99h-.43l-2.7,3.99h-3.54Z"/>
          <g>
            <g>
              <rect class="cls-21" x="282.78" y="411.22" width="268.45" height="31.67"/>
              <text class="cls-3" transform="translate(349.46 431.47)"><tspan x="0" y="0">VENCEDOR </tspan><tspan class="cls-12" x="64.82" y="0">J</tspan><tspan x="72.1" y="0">OGO 3</tspan></text>
            </g>
            <g>
              <g class="cls-29">
                <rect class="cls-16" x="258.17" y="399.16" width="53.39" height="53.39"/>
              </g>
              <path class="cls-27" d="m309.28,401.43v48.84h-48.84v-48.84h48.84m4-4h-56.84v56.84h56.84v-56.84h0Z"/>
            </g>
          </g>
          <g>
            <g>
              <rect class="cls-21" x="258.17" y="480.61" width="265.47" height="31.67"/>
              <text class="cls-3" transform="translate(349.29 501.52)"><tspan x="0" y="0">VENCEDOR </tspan><tspan class="cls-12" x="64.82" y="0">J</tspan><tspan x="72.1" y="0">OGO 4</tspan></text>
            </g>
            <g>
              <g class="cls-36">
                <rect class="cls-19" x="496.94" y="468.55" width="53.39" height="53.39"/>
              </g>
              <path class="cls-27" d="m548.06,470.83v48.84h-48.84v-48.84h48.84m4-4h-56.84v56.84h56.84v-56.84h0Z"/>
            </g>
          </g>
        </g>
      </g>
      <g>
        <rect class="cls-20" x="67.78" y="186.52" width="522.44" height="172.75" rx="27.36" ry="27.36"/>
        <g>
          <text class="cls-1" transform="translate(105.46 265.8)"><tspan x="0" y="0">SEMIFINA</tspan><tspan class="cls-34" x="94.45" y="0">L</tspan><tspan x="105.42" y="0" xml:space="preserve"> 1</tspan></text>
          <text class="cls-5" transform="translate(144.25 292.65)"><tspan x="0" y="0">MD3</tspan></text>
        </g>
        <g>
          <path class="cls-6" d="m396.75,281.13l4.3-5.98-4.26-5.88h3.49l2.7,3.95h.43l2.7-3.95h3.49l-4.26,5.88,4.3,5.98h-3.54l-2.7-3.99h-.43l-2.7,3.99h-3.54Z"/>
          <g>
            <g>
              <rect class="cls-21" x="282.78" y="223.84" width="268.45" height="31.67"/>
              <text class="cls-3" transform="translate(350.42 244.1)"><tspan x="0" y="0">VENCEDOR </tspan><tspan class="cls-12" x="64.82" y="0">J</tspan><tspan x="72.1" y="0">OGO 1</tspan></text>
            </g>
            <g>
              <g class="cls-33">
                <rect class="cls-22" x="258.17" y="211.79" width="53.39" height="53.39"/>
              </g>
              <path class="cls-27" d="m309.28,214.06v48.84h-48.84v-48.84h48.84m4-4h-56.84v56.84h56.84v-56.84h0Z"/>
            </g>
          </g>
          <g>
            <g>
              <rect class="cls-21" x="258.17" y="293.23" width="265.47" height="31.67"/>
              <text class="cls-3" transform="translate(349.55 314.15)"><tspan x="0" y="0">VENCEDOR </tspan><tspan class="cls-12" x="64.82" y="0">J</tspan><tspan x="72.1" y="0">OGO 2</tspan></text>
            </g>
            <g>
              <g class="cls-37">
                <rect class="cls-23" x="496.94" y="281.18" width="53.39" height="53.39"/>
              </g>
              <path class="cls-27" d="m548.06,283.45v48.84h-48.84v-48.84h48.84m4-4h-56.84v56.84h56.84v-56.84h0Z"/>
            </g>
          </g>
        </g>
      </g>
    </g>
  </g>
</svg>