<?xml version="1.0" encoding="UTF-8"?>
<svg id="Camada_2" data-name="Camada 2" xmlns="http://www.w3.org/2000/svg" xmlns:xlink="http://www.w3.org/1999/xlink" viewBox="0 0 648.29 883.41">
  <defs>
    <style>
      .cls-1 {
        stroke: url(#Gradiente_sem_nome_20-10);
      }

      .cls-1, .cls-2, .cls-3, .cls-4, .cls-5, .cls-6, .cls-7, .cls-8, .cls-9, .cls-10, .cls-11, .cls-12, .cls-13, .cls-14, .cls-15, .cls-16, .cls-17, .cls-18, .cls-19, .cls-20, .cls-21, .cls-22, .cls-23, .cls-24, .cls-25, .cls-26 {
        stroke-miterlimit: 10;
      }

      .cls-1, .cls-4, .cls-27, .cls-6, .cls-9, .cls-13, .cls-14, .cls-15, .cls-20, .cls-22 {
        fill: none;
      }

      .cls-28 {
        clip-path: url(#clippath-11);
      }

      .cls-2 {
        stroke: url(#Gradiente_sem_nome_20-2);
      }

      .cls-2, .cls-3, .cls-5, .cls-7, .cls-8, .cls-10, .cls-11, .cls-12, .cls-17, .cls-18, .cls-19, .cls-21, .cls-23, .cls-24, .cls-25, .cls-26 {
        fill: #ededed;
      }

      .cls-29 {
        fill: #ffb522;
      }

      .cls-29, .cls-27, .cls-30, .cls-31 {
        stroke-width: 0px;
      }

      .cls-3 {
        stroke: url(#Gradiente_sem_nome_20-3);
      }

      .cls-32, .cls-33, .cls-34, .cls-35, .cls-36, .cls-37, .cls-38, .cls-39 {
        font-family: SpaceGrotesk-Light, 'Space Grotesk';
        font-variation-settings: 'wght' 300;
        font-weight: 300;
      }

      .cls-40 {
        letter-spacing: -.06em;
      }

      .cls-41 {
        letter-spacing: -.02em;
      }

      .cls-42 {
        letter-spacing: -.04em;
      }

      .cls-42, .cls-43, .cls-44, .cls-45, .cls-46 {
        font-family: SpaceGrotesk-Bold, 'Space Grotesk';
        font-variation-settings: 'wght' 700;
        font-weight: 700;
      }

      .cls-47 {
        clip-path: url(#clippath-2);
      }

      .cls-48 {
        clip-path: url(#clippath-13);
      }

      .cls-33 {
        letter-spacing: -.08em;
      }

      .cls-34 {
        letter-spacing: -.05em;
      }

      .cls-49 {
        clip-path: url(#clippath-15);
      }

      .cls-35, .cls-50 {
        letter-spacing: 0em;
      }

      .cls-51 {
        clip-path: url(#clippath-6);
      }

      .cls-52 {
        letter-spacing: -.02em;
      }

      .cls-4 {
        stroke: url(#Gradiente_sem_nome_20);
      }

      .cls-5 {
        stroke: url(#Gradiente_sem_nome_20-11);
      }

      .cls-6 {
        stroke: url(#Gradiente_sem_nome_20-13);
      }

      .cls-53 {
        clip-path: url(#clippath-7);
      }

      .cls-36, .cls-54, .cls-44, .cls-31, .cls-45, .cls-46 {
        fill: #1d1d1b;
      }

      .cls-36, .cls-46 {
        font-size: 13.71px;
      }

      .cls-55 {
        letter-spacing: 0em;
      }

      .cls-56 {
        clip-path: url(#clippath-1);
      }

      .cls-57 {
        clip-path: url(#clippath-4);
      }

      .cls-54, .cls-45 {
        font-size: 25.1px;
      }

      .cls-37, .cls-58 {
        letter-spacing: -.03em;
      }

      .cls-7 {
        stroke: url(#Gradiente_sem_nome_20-9);
      }

      .cls-59 {
        letter-spacing: -.05em;
      }

      .cls-60 {
        clip-path: url(#clippath-12);
      }

      .cls-8 {
        stroke: url(#Gradiente_sem_nome_20-23);
      }

      .cls-38 {
        letter-spacing: 0em;
      }

      .cls-9 {
        stroke: url(#Gradiente_sem_nome_20-4);
      }

      .cls-10 {
        stroke: url(#Gradiente_sem_nome_20-21);
      }

      .cls-11 {
        stroke: url(#Gradiente_sem_nome_20-14);
      }

      .cls-61 {
        clip-path: url(#clippath-9);
      }

      .cls-12 {
        stroke: url(#Gradiente_sem_nome_20-8);
      }

      .cls-62 {
        clip-path: url(#clippath);
      }

      .cls-13 {
        stroke: url(#Gradiente_sem_nome_20-22);
      }

      .cls-14 {
        stroke-width: 2px;
      }

      .cls-14, .cls-16 {
        stroke: #1d1d1b;
      }

      .cls-15 {
        stroke: url(#Gradiente_sem_nome_20-19);
      }

      .cls-44 {
        font-size: 12px;
      }

      .cls-63 {
        clip-path: url(#clippath-3);
      }

      .cls-16 {
        fill: #fff;
      }

      .cls-17 {
        stroke: url(#Gradiente_sem_nome_20-17);
      }

      .cls-64 {
        clip-path: url(#clippath-8);
      }

      .cls-18 {
        stroke: url(#Gradiente_sem_nome_20-24);
      }

      .cls-19 {
        stroke: url(#Gradiente_sem_nome_20-18);
      }

      .cls-65 {
        clip-path: url(#clippath-14);
      }

      .cls-39 {
        letter-spacing: -.02em;
      }

      .cls-20 {
        stroke: url(#Gradiente_sem_nome_20-16);
      }

      .cls-66 {
        clip-path: url(#clippath-5);
      }

      .cls-21 {
        stroke: url(#Gradiente_sem_nome_20-15);
      }

      .cls-22 {
        stroke: url(#Gradiente_sem_nome_20-7);
      }

      .cls-67 {
        letter-spacing: 0em;
      }

      .cls-68 {
        letter-spacing: -.02em;
      }

      .cls-30 {
        fill: #e8a021;
      }

      .cls-69 {
        clip-path: url(#clippath-10);
      }

      .cls-70 {
        letter-spacing: -.01em;
      }

      .cls-23 {
        stroke: url(#Gradiente_sem_nome_20-20);
      }

      .cls-24 {
        stroke: url(#Gradiente_sem_nome_20-5);
      }

      .cls-25 {
        stroke: url(#Gradiente_sem_nome_20-6);
      }

      .cls-26 {
        stroke: url(#Gradiente_sem_nome_20-12);
      }
    </style>
    <linearGradient id="Gradiente_sem_nome_20" data-name="Gradiente sem nome 20" x1="63.89" y1="152.33" x2="578.79" y2="152.33" gradientUnits="userSpaceOnUse">
      <stop offset="0" stop-color="#252e38"/>
      <stop offset="1" stop-color="#263343"/>
    </linearGradient>
    <clipPath id="clippath">
      <rect class="cls-27" x="218.58" y="133.45" width="37.75" height="37.75"/>
    </clipPath>
    <linearGradient id="Gradiente_sem_nome_20-2" data-name="Gradiente sem nome 20" x1="216.32" y1="152.33" x2="258.59" y2="152.33" xlink:href="#Gradiente_sem_nome_20"/>
    <clipPath id="clippath-1">
      <rect class="cls-27" x="549.08" y="133.45" width="37.75" height="37.75"/>
    </clipPath>
    <linearGradient id="Gradiente_sem_nome_20-3" data-name="Gradiente sem nome 20" x1="546.82" y1="152.33" x2="589.09" y2="152.33" xlink:href="#Gradiente_sem_nome_20"/>
    <linearGradient id="Gradiente_sem_nome_20-4" data-name="Gradiente sem nome 20" y1="245.23" y2="245.23" xlink:href="#Gradiente_sem_nome_20"/>
    <clipPath id="clippath-2">
      <rect class="cls-27" x="218.58" y="226.36" width="37.75" height="37.75"/>
    </clipPath>
    <linearGradient id="Gradiente_sem_nome_20-5" data-name="Gradiente sem nome 20" x1="216.32" y1="245.23" x2="258.59" y2="245.23" xlink:href="#Gradiente_sem_nome_20"/>
    <clipPath id="clippath-3">
      <rect class="cls-27" x="549.08" y="226.36" width="37.75" height="37.75"/>
    </clipPath>
    <linearGradient id="Gradiente_sem_nome_20-6" data-name="Gradiente sem nome 20" x1="546.82" y1="245.23" x2="589.09" y2="245.23" xlink:href="#Gradiente_sem_nome_20"/>
    <linearGradient id="Gradiente_sem_nome_20-7" data-name="Gradiente sem nome 20" y1="338.14" y2="338.14" xlink:href="#Gradiente_sem_nome_20"/>
    <clipPath id="clippath-4">
      <rect class="cls-27" x="218.58" y="319.26" width="37.75" height="37.75"/>
    </clipPath>
    <linearGradient id="Gradiente_sem_nome_20-8" data-name="Gradiente sem nome 20" x1="216.32" y1="338.14" x2="258.59" y2="338.14" xlink:href="#Gradiente_sem_nome_20"/>
    <clipPath id="clippath-5">
      <rect class="cls-27" x="549.08" y="319.26" width="37.75" height="37.75"/>
    </clipPath>
    <linearGradient id="Gradiente_sem_nome_20-9" data-name="Gradiente sem nome 20" x1="546.82" y1="338.14" x2="589.09" y2="338.14" xlink:href="#Gradiente_sem_nome_20"/>
    <linearGradient id="Gradiente_sem_nome_20-10" data-name="Gradiente sem nome 20" y1="431.05" y2="431.05" xlink:href="#Gradiente_sem_nome_20"/>
    <clipPath id="clippath-6">
      <rect class="cls-27" x="218.58" y="412.17" width="37.75" height="37.75"/>
    </clipPath>
    <linearGradient id="Gradiente_sem_nome_20-11" data-name="Gradiente sem nome 20" x1="216.32" y1="431.05" x2="258.59" y2="431.05" xlink:href="#Gradiente_sem_nome_20"/>
    <clipPath id="clippath-7">
      <rect class="cls-27" x="549.08" y="412.17" width="37.75" height="37.75"/>
    </clipPath>
    <linearGradient id="Gradiente_sem_nome_20-12" data-name="Gradiente sem nome 20" x1="546.82" y1="431.05" x2="589.09" y2="431.05" xlink:href="#Gradiente_sem_nome_20"/>
    <linearGradient id="Gradiente_sem_nome_20-13" data-name="Gradiente sem nome 20" y1="523.95" y2="523.95" xlink:href="#Gradiente_sem_nome_20"/>
    <clipPath id="clippath-8">
      <rect class="cls-27" x="218.58" y="505.08" width="37.75" height="37.75"/>
    </clipPath>
    <linearGradient id="Gradiente_sem_nome_20-14" data-name="Gradiente sem nome 20" x1="216.32" y1="523.95" x2="258.59" y2="523.95" xlink:href="#Gradiente_sem_nome_20"/>
    <clipPath id="clippath-9">
      <rect class="cls-27" x="549.08" y="505.08" width="37.75" height="37.75"/>
    </clipPath>
    <linearGradient id="Gradiente_sem_nome_20-15" data-name="Gradiente sem nome 20" x1="546.82" y1="523.95" x2="589.09" y2="523.95" xlink:href="#Gradiente_sem_nome_20"/>
    <linearGradient id="Gradiente_sem_nome_20-16" data-name="Gradiente sem nome 20" y1="616.86" y2="616.86" xlink:href="#Gradiente_sem_nome_20"/>
    <clipPath id="clippath-10">
      <rect class="cls-27" x="218.58" y="597.98" width="37.75" height="37.75"/>
    </clipPath>
    <linearGradient id="Gradiente_sem_nome_20-17" data-name="Gradiente sem nome 20" x1="216.32" y1="616.86" x2="258.59" y2="616.86" xlink:href="#Gradiente_sem_nome_20"/>
    <clipPath id="clippath-11">
      <rect class="cls-27" x="549.08" y="597.98" width="37.75" height="37.75"/>
    </clipPath>
    <linearGradient id="Gradiente_sem_nome_20-18" data-name="Gradiente sem nome 20" x1="546.82" y1="616.86" x2="589.09" y2="616.86" xlink:href="#Gradiente_sem_nome_20"/>
    <linearGradient id="Gradiente_sem_nome_20-19" data-name="Gradiente sem nome 20" y1="709.77" y2="709.77" xlink:href="#Gradiente_sem_nome_20"/>
    <clipPath id="clippath-12">
      <rect class="cls-27" x="218.58" y="690.89" width="37.75" height="37.75"/>
    </clipPath>
    <linearGradient id="Gradiente_sem_nome_20-20" data-name="Gradiente sem nome 20" x1="216.32" y1="709.77" x2="258.59" y2="709.77" xlink:href="#Gradiente_sem_nome_20"/>
    <clipPath id="clippath-13">
      <rect class="cls-27" x="549.08" y="690.89" width="37.75" height="37.75"/>
    </clipPath>
    <linearGradient id="Gradiente_sem_nome_20-21" data-name="Gradiente sem nome 20" x1="546.82" y1="709.77" x2="589.09" y2="709.77" xlink:href="#Gradiente_sem_nome_20"/>
    <linearGradient id="Gradiente_sem_nome_20-22" data-name="Gradiente sem nome 20" y1="802.67" y2="802.67" xlink:href="#Gradiente_sem_nome_20"/>
    <clipPath id="clippath-14">
      <rect class="cls-27" x="218.58" y="783.8" width="37.75" height="37.75"/>
    </clipPath>
    <linearGradient id="Gradiente_sem_nome_20-23" data-name="Gradiente sem nome 20" x1="216.32" y1="802.67" x2="258.59" y2="802.67" xlink:href="#Gradiente_sem_nome_20"/>
    <clipPath id="clippath-15">
      <rect class="cls-27" x="549.08" y="783.8" width="37.75" height="37.75"/>
    </clipPath>
    <linearGradient id="Gradiente_sem_nome_20-24" data-name="Gradiente sem nome 20" x1="546.82" y1="802.67" x2="589.09" y2="802.67" xlink:href="#Gradiente_sem_nome_20"/>
  </defs>
  <g id="Camada_1-2" data-name="Camada 1">
    <g>
      <rect class="cls-29" width="648.29" height="883.41" rx="41.55" ry="41.55"/>
      <g>
        <rect class="cls-4" x="64.39" y="133.45" width="513.89" height="37.75"/>
        <g>
          <rect class="cls-16" x="237.46" y="137.9" width="153.07" height="29"/>
          <g>
            <g class="cls-62">
              <rect class="cls-2" x="216.82" y="131.69" width="41.27" height="41.27"/>
            </g>
            <path class="cls-30" d="m256.34,133.45v37.75h-37.75v-37.75h37.75m4-4h-45.75v45.75h45.75v-45.75h0Z"/>
          </g>
          <rect class="cls-16" x="414.89" y="137.9" width="153.07" height="29"/>
          <g>
            <g class="cls-56">
              <rect class="cls-3" x="547.32" y="131.69" width="41.27" height="41.27"/>
            </g>
            <path class="cls-30" d="m586.83,133.45v37.75h-37.75v-37.75h37.75m4-4h-45.75v45.75h45.75v-45.75h0Z"/>
          </g>
          <path class="cls-31" d="m398.6,156.84l2.74-3.8-2.71-3.74h2.22l1.72,2.51h.27l1.72-2.51h2.22l-2.7,3.74,2.73,3.8h-2.25l-1.72-2.54h-.27l-1.72,2.54h-2.25Z"/>
          <text class="cls-44" transform="translate(273.49 155.21)"><tspan x="0" y="0">VENCEDOR </tspan><tspan class="cls-41" x="63.22" y="0">J</tspan><tspan x="70.32" y="0">OGO 1</tspan></text>
          <text class="cls-44" transform="translate(427.24 155.21)"><tspan x="0" y="0">VENCEDOR </tspan><tspan class="cls-68" x="63.22" y="0">J</tspan><tspan class="cls-55" x="70.32" y="0">OGO 2</tspan></text>
        </g>
        <text class="cls-46" transform="translate(81.64 156.91)"><tspan x="0" y="0">OI</tspan><tspan class="cls-40" x="12.88" y="0">T</tspan><tspan class="cls-59" x="20.07" y="0">AV</tspan><tspan x="35.97" y="0">AS 1</tspan></text>
        <text class="cls-36" transform="translate(160.35 156.91)"><tspan x="0" y="0">MD3</tspan></text>
      </g>
      <g>
        <rect class="cls-9" x="64.39" y="226.36" width="513.89" height="37.75"/>
        <g>
          <rect class="cls-16" x="237.46" y="230.81" width="153.07" height="29"/>
          <g>
            <g class="cls-47">
              <rect class="cls-24" x="216.82" y="224.6" width="41.27" height="41.27"/>
            </g>
            <path class="cls-30" d="m256.34,226.36v37.75h-37.75v-37.75h37.75m4-4h-45.75v45.75h45.75v-45.75h0Z"/>
          </g>
          <rect class="cls-16" x="414.89" y="230.81" width="153.07" height="29"/>
          <g>
            <g class="cls-63">
              <rect class="cls-25" x="547.32" y="224.6" width="41.27" height="41.27"/>
            </g>
            <path class="cls-30" d="m586.83,226.36v37.75h-37.75v-37.75h37.75m4-4h-45.75v45.75h45.75v-45.75h0Z"/>
          </g>
          <path class="cls-31" d="m398.6,249.75l2.74-3.8-2.71-3.74h2.22l1.72,2.51h.27l1.72-2.51h2.22l-2.7,3.74,2.73,3.8h-2.25l-1.72-2.54h-.27l-1.72,2.54h-2.25Z"/>
          <text class="cls-44" transform="translate(271.62 248.12)"><tspan x="0" y="0">VENCEDOR </tspan><tspan class="cls-41" x="63.22" y="0">J</tspan><tspan x="70.32" y="0">OGO 3</tspan></text>
          <text class="cls-44" transform="translate(427.24 248.12)"><tspan x="0" y="0">VENCEDOR </tspan><tspan class="cls-68" x="63.22" y="0">J</tspan><tspan class="cls-55" x="70.32" y="0">OGO 4</tspan></text>
        </g>
        <text class="cls-46" transform="translate(81.64 249.81)"><tspan x="0" y="0">OI</tspan><tspan class="cls-40" x="12.88" y="0">T</tspan><tspan class="cls-59" x="20.07" y="0">AV</tspan><tspan x="35.97" y="0">AS 2</tspan></text>
        <text class="cls-36" transform="translate(160.35 249.81)"><tspan x="0" y="0">MD3</tspan></text>
      </g>
      <g>
        <rect class="cls-22" x="64.39" y="319.26" width="513.89" height="37.75"/>
        <g>
          <rect class="cls-16" x="237.46" y="323.71" width="153.07" height="29"/>
          <g>
            <g class="cls-57">
              <rect class="cls-12" x="216.82" y="317.51" width="41.27" height="41.27"/>
            </g>
            <path class="cls-30" d="m256.34,319.26v37.75h-37.75v-37.75h37.75m4-4h-45.75v45.75h45.75v-45.75h0Z"/>
          </g>
          <rect class="cls-16" x="414.89" y="323.71" width="153.07" height="29"/>
          <g>
            <g class="cls-66">
              <rect class="cls-7" x="547.32" y="317.51" width="41.27" height="41.27"/>
            </g>
            <path class="cls-30" d="m586.83,319.26v37.75h-37.75v-37.75h37.75m4-4h-45.75v45.75h45.75v-45.75h0Z"/>
          </g>
          <path class="cls-31" d="m398.6,342.66l2.74-3.8-2.71-3.74h2.22l1.72,2.51h.27l1.72-2.51h2.22l-2.7,3.74,2.73,3.8h-2.25l-1.72-2.54h-.27l-1.72,2.54h-2.25Z"/>
          <text class="cls-44" transform="translate(271.72 341.02)"><tspan x="0" y="0">VENCEDOR </tspan><tspan class="cls-41" x="63.22" y="0">J</tspan><tspan x="70.32" y="0">OGO 5</tspan></text>
          <text class="cls-44" transform="translate(427.24 341.02)"><tspan x="0" y="0">VENCEDOR </tspan><tspan class="cls-68" x="63.22" y="0">J</tspan><tspan class="cls-55" x="70.32" y="0">OGO 6</tspan></text>
        </g>
        <text class="cls-46" transform="translate(81.64 342.72)"><tspan x="0" y="0">OI</tspan><tspan class="cls-40" x="12.88" y="0">T</tspan><tspan class="cls-59" x="20.07" y="0">AV</tspan><tspan x="35.97" y="0">AS 3</tspan></text>
        <text class="cls-36" transform="translate(160.35 342.72)"><tspan x="0" y="0">MD3</tspan></text>
      </g>
      <g>
        <rect class="cls-1" x="64.39" y="412.17" width="513.89" height="37.75"/>
        <g>
          <rect class="cls-16" x="237.46" y="416.62" width="153.07" height="29"/>
          <g>
            <g class="cls-51">
              <rect class="cls-5" x="216.82" y="410.41" width="41.27" height="41.27"/>
            </g>
            <path class="cls-30" d="m256.34,412.17v37.75h-37.75v-37.75h37.75m4-4h-45.75v45.75h45.75v-45.75h0Z"/>
          </g>
          <rect class="cls-16" x="414.89" y="416.62" width="153.07" height="29"/>
          <g>
            <g class="cls-53">
              <rect class="cls-26" x="547.32" y="410.41" width="41.27" height="41.27"/>
            </g>
            <path class="cls-30" d="m586.83,412.17v37.75h-37.75v-37.75h37.75m4-4h-45.75v45.75h45.75v-45.75h0Z"/>
          </g>
          <path class="cls-31" d="m398.6,435.56l2.74-3.8-2.71-3.74h2.22l1.72,2.51h.27l1.72-2.51h2.22l-2.7,3.74,2.73,3.8h-2.25l-1.72-2.54h-.27l-1.72,2.54h-2.25Z"/>
          <text class="cls-44" transform="translate(272.27 433.93)"><tspan x="0" y="0">VENCEDOR </tspan><tspan class="cls-68" x="63.22" y="0">J</tspan><tspan class="cls-55" x="70.32" y="0">OGO 7</tspan></text>
          <text class="cls-44" transform="translate(427.24 433.93)"><tspan x="0" y="0">VENCEDOR </tspan><tspan class="cls-68" x="63.22" y="0">J</tspan><tspan class="cls-55" x="70.32" y="0">OGO 8</tspan></text>
        </g>
        <text class="cls-46" transform="translate(81.64 435.63)"><tspan x="0" y="0">OI</tspan><tspan class="cls-40" x="12.88" y="0">T</tspan><tspan class="cls-59" x="20.07" y="0">AV</tspan><tspan x="35.97" y="0">AS 4</tspan></text>
        <text class="cls-36" transform="translate(160.35 435.63)"><tspan x="0" y="0">MD3</tspan></text>
      </g>
      <g>
        <rect class="cls-6" x="64.39" y="505.08" width="513.89" height="37.75"/>
        <g>
          <rect class="cls-16" x="237.46" y="509.53" width="153.07" height="29"/>
          <g>
            <g class="cls-64">
              <rect class="cls-11" x="216.82" y="503.32" width="41.27" height="41.27"/>
            </g>
            <path class="cls-30" d="m256.34,505.08v37.75h-37.75v-37.75h37.75m4-4h-45.75v45.75h45.75v-45.75h0Z"/>
          </g>
          <rect class="cls-16" x="414.89" y="509.53" width="153.07" height="29"/>
          <g>
            <g class="cls-61">
              <rect class="cls-21" x="547.32" y="503.32" width="41.27" height="41.27"/>
            </g>
            <path class="cls-30" d="m586.83,505.08v37.75h-37.75v-37.75h37.75m4-4h-45.75v45.75h45.75v-45.75h0Z"/>
          </g>
          <path class="cls-31" d="m398.6,528.47l2.74-3.8-2.71-3.74h2.22l1.72,2.51h.27l1.72-2.51h2.22l-2.7,3.74,2.73,3.8h-2.25l-1.72-2.54h-.27l-1.72,2.54h-2.25Z"/>
          <text class="cls-44" transform="translate(271.5 526.84)"><tspan x="0" y="0">VENCEDOR </tspan><tspan class="cls-41" x="63.22" y="0">J</tspan><tspan x="70.32" y="0">OGO 9</tspan></text>
          <text class="cls-44" transform="translate(427.24 526.84)"><tspan x="0" y="0">VENCEDOR </tspan><tspan class="cls-68" x="63.22" y="0">J</tspan><tspan class="cls-55" x="70.32" y="0">OGO 10</tspan></text>
        </g>
        <text class="cls-46" transform="translate(81.64 528.53)"><tspan x="0" y="0">OI</tspan><tspan class="cls-40" x="12.88" y="0">T</tspan><tspan class="cls-59" x="20.07" y="0">AV</tspan><tspan x="35.97" y="0">AS 5</tspan></text>
        <text class="cls-36" transform="translate(160.35 528.53)"><tspan x="0" y="0">MD3</tspan></text>
      </g>
      <g>
        <rect class="cls-20" x="64.39" y="597.98" width="513.89" height="37.75"/>
        <g>
          <rect class="cls-16" x="237.46" y="602.43" width="153.07" height="29"/>
          <g>
            <g class="cls-69">
              <rect class="cls-17" x="216.82" y="596.23" width="41.27" height="41.27"/>
            </g>
            <path class="cls-30" d="m256.34,597.98v37.75h-37.75v-37.75h37.75m4-4h-45.75v45.75h45.75v-45.75h0Z"/>
          </g>
          <rect class="cls-16" x="414.89" y="602.43" width="153.07" height="29"/>
          <g>
            <g class="cls-28">
              <rect class="cls-19" x="547.32" y="596.23" width="41.27" height="41.27"/>
            </g>
            <path class="cls-30" d="m586.83,597.98v37.75h-37.75v-37.75h37.75m4-4h-45.75v45.75h45.75v-45.75h0Z"/>
          </g>
          <path class="cls-31" d="m398.6,621.38l2.74-3.8-2.71-3.74h2.22l1.72,2.51h.27l1.72-2.51h2.22l-2.7,3.74,2.73,3.8h-2.25l-1.72-2.54h-.27l-1.72,2.54h-2.25Z"/>
          <text class="cls-44" transform="translate(268.07 619.74)"><tspan x="0" y="0">VENCEDOR </tspan><tspan class="cls-68" x="63.22" y="0">J</tspan><tspan class="cls-55" x="70.32" y="0">OGO 11</tspan></text>
          <text class="cls-44" transform="translate(427.24 619.74)"><tspan x="0" y="0">VENCEDOR </tspan><tspan class="cls-68" x="63.22" y="0">J</tspan><tspan class="cls-55" x="70.32" y="0">OGO 12</tspan></text>
        </g>
        <text class="cls-46" transform="translate(81.64 621.44)"><tspan x="0" y="0">OI</tspan><tspan class="cls-40" x="12.88" y="0">T</tspan><tspan class="cls-59" x="20.07" y="0">AV</tspan><tspan x="35.97" y="0">AS 6</tspan></text>
        <text class="cls-36" transform="translate(160.35 621.44)"><tspan x="0" y="0">MD3</tspan></text>
      </g>
      <g>
        <rect class="cls-15" x="64.39" y="690.89" width="513.89" height="37.75"/>
        <g>
          <rect class="cls-16" x="237.46" y="695.34" width="153.07" height="29"/>
          <g>
            <g class="cls-60">
              <rect class="cls-23" x="216.82" y="689.13" width="41.27" height="41.27"/>
            </g>
            <path class="cls-30" d="m256.34,690.89v37.75h-37.75v-37.75h37.75m4-4h-45.75v45.75h45.75v-45.75h0Z"/>
          </g>
          <rect class="cls-16" x="414.89" y="695.34" width="153.07" height="29"/>
          <g>
            <g class="cls-48">
              <rect class="cls-10" x="547.32" y="689.13" width="41.27" height="41.27"/>
            </g>
            <path class="cls-30" d="m586.83,690.89v37.75h-37.75v-37.75h37.75m4-4h-45.75v45.75h45.75v-45.75h0Z"/>
          </g>
          <path class="cls-31" d="m398.6,714.28l2.74-3.8-2.71-3.74h2.22l1.72,2.51h.27l1.72-2.51h2.22l-2.7,3.74,2.73,3.8h-2.25l-1.72-2.54h-.27l-1.72,2.54h-2.25Z"/>
          <text class="cls-44" transform="translate(266.2 712.65)"><tspan x="0" y="0">VENCEDOR </tspan><tspan class="cls-41" x="63.22" y="0">J</tspan><tspan x="70.32" y="0">OGO 13</tspan></text>
          <text class="cls-44" transform="translate(427.24 712.65)"><tspan x="0" y="0">VENCEDOR </tspan><tspan class="cls-68" x="63.22" y="0">J</tspan><tspan class="cls-55" x="70.32" y="0">OGO 14</tspan></text>
        </g>
        <text class="cls-46" transform="translate(81.64 714.35)"><tspan x="0" y="0">OI</tspan><tspan class="cls-40" x="12.88" y="0">T</tspan><tspan class="cls-59" x="20.07" y="0">AV</tspan><tspan x="35.97" y="0">AS 7</tspan></text>
        <text class="cls-36" transform="translate(160.35 714.35)"><tspan x="0" y="0">MD3</tspan></text>
      </g>
      <g>
        <rect class="cls-13" x="64.39" y="783.8" width="513.89" height="37.75"/>
        <g>
          <rect class="cls-16" x="237.46" y="788.25" width="153.07" height="29"/>
          <g>
            <g class="cls-65">
              <rect class="cls-8" x="216.82" y="782.04" width="41.27" height="41.27"/>
            </g>
            <path class="cls-30" d="m256.34,783.8v37.75h-37.75v-37.75h37.75m4-4h-45.75v45.75h45.75v-45.75h0Z"/>
          </g>
          <rect class="cls-16" x="414.89" y="788.25" width="153.07" height="29"/>
          <g>
            <g class="cls-49">
              <rect class="cls-18" x="547.32" y="782.04" width="41.27" height="41.27"/>
            </g>
            <path class="cls-30" d="m586.83,783.8v37.75h-37.75v-37.75h37.75m4-4h-45.75v45.75h45.75v-45.75h0Z"/>
          </g>
          <path class="cls-31" d="m398.6,807.19l2.74-3.8-2.71-3.74h2.22l1.72,2.51h.27l1.72-2.51h2.22l-2.7,3.74,2.73,3.8h-2.25l-1.72-2.54h-.27l-1.72,2.54h-2.25Z"/>
          <text class="cls-44" transform="translate(266.29 805.56)"><tspan x="0" y="0">VENCEDOR </tspan><tspan class="cls-41" x="63.22" y="0">J</tspan><tspan x="70.32" y="0">OGO 15</tspan></text>
          <text class="cls-44" transform="translate(427.24 805.56)"><tspan x="0" y="0">VENCEDOR </tspan><tspan class="cls-68" x="63.22" y="0">J</tspan><tspan class="cls-55" x="70.32" y="0">OGO 16</tspan></text>
        </g>
        <text class="cls-46" transform="translate(81.64 807.25)"><tspan x="0" y="0">OI</tspan><tspan class="cls-40" x="12.88" y="0">T</tspan><tspan class="cls-59" x="20.07" y="0">AV</tspan><tspan x="35.97" y="0">AS 8</tspan></text>
        <text class="cls-36" transform="translate(160.35 807.25)"><tspan x="0" y="0">MD3</tspan></text>
      </g>
      <text class="cls-54" transform="translate(173.44 44.72)"><tspan class="cls-43" x="0" y="0">2° </tspan><tspan class="cls-42" x="31.18" y="0">F</tspan><tspan class="cls-43" x="43.48" y="0">ASE </tspan><tspan class="cls-37" x="94.88" y="0">-</tspan><tspan class="cls-32" x="105.78" y="0" xml:space="preserve"> OI</tspan><tspan class="cls-33" x="134.89" y="0">T</tspan><tspan class="cls-34" x="147.65" y="0">AV</tspan><tspan class="cls-38" x="176.21" y="0">A</tspan><tspan class="cls-35" x="191.88" y="0">S DE FINA</tspan><tspan class="cls-39" x="303.02" y="0">L</tspan></text>
      <text class="cls-45" transform="translate(128.95 87.56)"><tspan x="0" y="0">Sor</tspan><tspan class="cls-52" x="40.51" y="0">t</tspan><tspan class="cls-50" x="51.51" y="0">eio dos Co</tspan><tspan class="cls-70" x="176.84" y="0">n</tspan><tspan x="191.95" y="0">f</tspan><tspan class="cls-52" x="202.9" y="0">r</tspan><tspan x="212.38" y="0">o</tspan><tspan class="cls-70" x="227.75" y="0">n</tspan><tspan class="cls-52" x="242.86" y="0">t</tspan><tspan x="253.85" y="0">os em b</tspan><tspan class="cls-52" x="347.05" y="0">r</tspan><tspan class="cls-70" x="356.54" y="0">ev</tspan><tspan class="cls-67" x="384.08" y="0">e</tspan><tspan class="cls-58" x="398.41" y="0">.</tspan></text>
      <line class="cls-14" x1="64.39" y1="151.67" y2="151.67"/>
      <line class="cls-14" x1="64.39" y1="245.23" y2="245.23"/>
      <line class="cls-14" x1="64.39" y1="338.8" y2="338.8"/>
      <line class="cls-14" x1="64.39" y1="432.37" y2="432.37"/>
      <line class="cls-14" x1="64.39" y1="525.94" y2="525.94"/>
      <line class="cls-14" x1="64.39" y1="619.51" y2="619.51"/>
      <line class="cls-14" x1="64.39" y1="713.08" y2="713.08"/>
      <line class="cls-14" x1="64.39" y1="806.65" y2="806.65"/>
      <g>
        <polyline class="cls-14" points="586.83 153.01 616.57 153.01 616.57 243.96 586.83 243.96"/>
        <line class="cls-14" x1="648.29" y1="197.77" x2="616.57" y2="197.77"/>
      </g>
      <g>
        <polyline class="cls-14" points="586.83 339.12 616.57 339.12 616.57 430.07 586.83 430.07"/>
        <line class="cls-14" x1="648.29" y1="383.88" x2="616.57" y2="383.88"/>
      </g>
      <g>
        <polyline class="cls-14" points="586.83 525.23 616.57 525.23 616.57 616.18 586.83 616.18"/>
        <line class="cls-14" x1="648.29" y1="569.99" x2="616.57" y2="569.99"/>
      </g>
      <g>
        <polyline class="cls-14" points="586.83 711.34 616.57 711.34 616.57 802.29 586.83 802.29"/>
        <line class="cls-14" x1="648.29" y1="756.1" x2="616.57" y2="756.1"/>
      </g>
    </g>
  </g>
</svg>