<?xml version="1.0" encoding="utf-8"?>
<!-- Generator: Adobe Illustrator 27.9.0, SVG Export Plug-In . SVG Version: 6.00 Build 0)  -->
<svg version="1.1" id="Camada_2_00000161614982838333441550000008971872814576275647_"
	 xmlns="http://www.w3.org/2000/svg" xmlns:xlink="http://www.w3.org/1999/xlink" x="0px" y="0px" viewBox="0 0 49 49"
	 style="enable-background:new 0 0 49 49;" xml:space="preserve">
<style type="text/css">
	.st0{fill:#00FF64;}
	.st1{fill:#FFFFFF;}
</style>
<rect class="st0" width="49" height="49"/>
<g>
	<path class="st1" d="M40.5,23.9c0,0.4,0,0.8,0,1.2c0,0.1,0,0.2,0,0.2c0,0.9-0.2,1.9-0.4,2.8c-0.7,3-2.2,5.7-4.4,7.8
		c-1.4,1.4-3,2.5-4.9,3.2c-1.4,0.6-2.9,1-4.5,1.2c-0.4,0-0.7,0.1-1.1,0.1c-0.4,0-0.8,0-1.2,0c0,0-0.1,0-0.1,0
		c-0.6,0-1.2-0.1-1.8-0.2c-1.4-0.2-2.7-0.6-4-1.2c-2-0.9-3.8-2.2-5.3-3.9c-1.3-1.4-2.3-3-3-4.7c-0.6-1.4-0.9-2.8-1.1-4.2
		c0-0.4-0.1-0.7-0.1-1.1c0-0.4,0-0.8,0-1.2c0-0.1,0-0.2,0-0.2c0-0.5,0.1-1.1,0.2-1.6c0.2-1.5,0.7-2.9,1.3-4.2c0.8-1.8,2-3.4,3.4-4.7
		c1-1,2.1-1.8,3.4-2.5c1.1-0.6,2.2-1.1,3.4-1.4c1-0.3,2-0.4,3-0.5c0.3,0,0.5,0,0.8-0.1c0.4,0,0.8,0,1.2,0c0,0,0.1,0,0.1,0
		c0.6,0,1.3,0.1,1.9,0.2c1.4,0.2,2.7,0.6,3.9,1.2c1.8,0.8,3.5,2,4.9,3.4c1.5,1.5,2.6,3.2,3.3,5.1c0.5,1.4,0.9,2.8,1,4.2
		C40.4,23.1,40.4,23.5,40.5,23.9z M21.3,32C21.4,31.9,21.4,31.9,21.3,32c1.9-1.9,3.8-3.8,5.6-5.6c2.3-2.3,4.6-4.6,6.9-6.9
		c0.1-0.1,0.1-0.1,0-0.3c-0.7-0.7-1.3-1.3-2-2c-0.1-0.1-0.2-0.1-0.3,0c-3.4,3.4-6.7,6.8-10.1,10.1c-0.1,0.1-0.2,0.1-0.3,0
		c-1.3-1.3-2.5-2.5-3.8-3.8c-0.1-0.1-0.2-0.1-0.2,0c-0.7,0.7-1.3,1.3-2,2c-0.1,0.1-0.1,0.2,0,0.3c2,2,3.9,3.9,5.9,5.9
		C21.1,31.8,21.2,31.8,21.3,32C21.3,31.9,21.3,31.9,21.3,32z"/>
</g>
<g>
	<path class="st1" d="M23.8,43.7l-0.6,0l0-0.3l0.7,0l0-0.9l0.4,0l-0.1,2l-1.2,0l0-0.3l0.8,0L23.8,43.7z"/>
	<path class="st1" d="M21.4,44.4l0.3-2l0.4,0.1l-0.3,2L21.4,44.4z"/>
	<path class="st1" d="M19.7,43.4l0.4-1.3l0.4,0.1l-0.5,2L19.6,44L19,42.5l-0.4,1.3l-0.4-0.1l0.5-2l0.4,0.1L19.7,43.4z"/>
	<path class="st1" d="M18,41.4l-1.6,1.5l-0.3-0.1l0.1-2.2l0.4,0.1l0,0.5l0.7,0.3l0.4-0.4L18,41.4z M17,41.8l-0.5-0.2l0,0.8L17,41.8z
		"/>
	<path class="st1" d="M14.9,40.2l-0.8-0.5l0.1-0.3l1.1,0.7l-1.1,1.7l-0.3-0.2L14.9,40.2z"/>
	<path class="st1" d="M11.9,40.2l1.3-1.6l0.3,0.2l-1.3,1.6L11.9,40.2z"/>
	<path class="st1" d="M11.9,37.9L11,37.1l0.2-0.2l1.1,1.1l-0.2,0.2l-1.8,0.2l0.7,0.7l-0.2,0.2l-1.1-1l0.2-0.2L11.9,37.9z"/>
	<path class="st1" d="M10.7,36.3l-2.1,0.6l-0.2-0.3l1.1-1.9L9.8,35l-0.3,0.5l0.5,0.6l0.5-0.1L10.7,36.3z M9.7,36.2l-0.3-0.4
		l-0.4,0.6L9.7,36.2z"/>
	<path class="st1" d="M7.3,33c0.3-0.2,0.5-0.2,0.8-0.2s0.4,0.2,0.6,0.5L9,34l-1.8,1l-0.4-0.7c-0.1-0.2-0.1-0.4-0.1-0.5
		s0.1-0.3,0.2-0.4S7.1,33.1,7.3,33z M7.5,33.3c-0.2,0.1-0.3,0.2-0.4,0.4s0,0.3,0,0.4l0.2,0.4l1.2-0.7l-0.2-0.3
		c-0.1-0.2-0.2-0.2-0.3-0.3C7.9,33.1,7.7,33.2,7.5,33.3z"/>
	<path class="st1" d="M6.9,32c-0.2,0.1-0.4,0.1-0.6,0.1c-0.2,0-0.3-0.1-0.5-0.2s-0.2-0.3-0.3-0.4c-0.1-0.2-0.1-0.4-0.1-0.6
		s0.1-0.3,0.2-0.5c0.1-0.1,0.3-0.2,0.5-0.3c0.2-0.1,0.4-0.1,0.6-0.1c0.2,0,0.3,0.1,0.5,0.2c0.1,0.1,0.2,0.3,0.3,0.4
		c0.1,0.2,0.1,0.4,0.1,0.6c0,0.2-0.1,0.3-0.2,0.5C7.2,31.8,7.1,31.9,6.9,32z M5.9,31.3c0,0.1,0.1,0.2,0.2,0.2
		c0.1,0.1,0.2,0.1,0.3,0.1s0.3,0,0.4-0.1c0.1,0,0.2-0.1,0.3-0.2s0.1-0.2,0.2-0.3c0-0.1,0-0.2,0-0.3c0-0.1-0.1-0.2-0.2-0.3
		s-0.2-0.1-0.3-0.1s-0.3,0-0.4,0.1c-0.1,0-0.2,0.1-0.3,0.2S5.9,30.9,5.8,31C5.8,31.1,5.8,31.2,5.9,31.3z"/>
	<path class="st1" d="M5.7,27.7l-0.1-0.8l0.3-0.1L6,27.6L5.7,27.7z"/>
	<path class="st1" d="M5.2,23.9l0-0.6l0.3,0l0,0.7l0.9,0l0,0.4l-2-0.1l0-1.2l0.3,0l0,0.8L5.2,23.9z"/>
	<path class="st1" d="M4.6,21.5l2,0.3l-0.1,0.4l-2-0.3L4.6,21.5z"/>
	<path class="st1" d="M5.6,19.9l1.3,0.4l-0.1,0.4l-2-0.5l0.1-0.4l1.6-0.6l-1.3-0.4l0.1-0.4l2,0.5l-0.1,0.4L5.6,19.9z"/>
	<path class="st1" d="M7.6,18.1L6,16.5l0.1-0.3l2.2,0.1l-0.1,0.4l-0.5,0l-0.3,0.7l0.4,0.4L7.6,18.1z M7.1,17.1l0.2-0.5l-0.8,0
		L7.1,17.1z"/>
	<path class="st1" d="M8.8,15l0.5-0.8l0.3,0.1l-0.7,1.1l-1.7-1.1l0.2-0.3L8.8,15z"/>
	<path class="st1" d="M8.7,12l1.6,1.3l-0.2,0.3l-1.6-1.3L8.7,12z"/>
	<path class="st1" d="M11,12l0.8-0.8l0.2,0.2L11,12.4l-0.2-0.2l-0.2-1.8l-0.7,0.7L9.6,11l1-1.1l0.3,0.2L11,12z"/>
	<path class="st1" d="M12.7,10.8L12,8.7l0.3-0.2l1.9,1.1l-0.3,0.3l-0.5-0.3l-0.6,0.5l0.2,0.5L12.7,10.8z M12.7,9.7l0.4-0.3L12.5,9
		L12.7,9.7z"/>
	<path class="st1" d="M15.9,7.4c0.2,0.3,0.2,0.5,0.2,0.8s-0.2,0.4-0.5,0.6L15,9.1l-1-1.8l0.7-0.4c0.2-0.1,0.4-0.1,0.5-0.1
		s0.3,0.1,0.4,0.2C15.7,7.1,15.8,7.2,15.9,7.4z M15.6,7.6c-0.1-0.2-0.2-0.3-0.4-0.4c-0.1-0.1-0.3,0-0.4,0l-0.4,0.2l0.7,1.2l0.3-0.2
		c0.1-0.1,0.2-0.2,0.3-0.3S15.7,7.8,15.6,7.6z"/>
	<path class="st1" d="M16.9,6.9c-0.1-0.2-0.1-0.4-0.1-0.6c0-0.2,0.1-0.3,0.2-0.5c0.1-0.1,0.3-0.2,0.4-0.3c0.2-0.1,0.4-0.1,0.6-0.1
		c0.2,0,0.3,0.1,0.5,0.2c0.1,0.1,0.2,0.3,0.3,0.5c0.1,0.2,0.1,0.4,0.1,0.6c0,0.2-0.1,0.3-0.2,0.5c-0.1,0.1-0.3,0.2-0.4,0.3
		c-0.2,0.1-0.4,0.1-0.6,0.1s-0.3-0.1-0.5-0.2C17.1,7.3,17,7.1,16.9,6.9z M17.6,5.9c-0.1,0-0.2,0.1-0.2,0.2c-0.1,0.1-0.1,0.2-0.1,0.3
		c0,0.1,0,0.3,0.1,0.4c0,0.1,0.1,0.2,0.2,0.3c0.1,0.1,0.2,0.1,0.3,0.2c0.1,0,0.2,0,0.3,0c0.1,0,0.2-0.1,0.3-0.2
		c0.1-0.1,0.1-0.2,0.1-0.3c0-0.1,0-0.3-0.1-0.4c0-0.1-0.1-0.2-0.2-0.3S18,5.9,17.9,5.9C17.8,5.8,17.7,5.9,17.6,5.9z"/>
	<path class="st1" d="M21.2,5.7l0.8-0.1L22,5.9L21.2,6L21.2,5.7z"/>
	<path class="st1" d="M24.9,5.2l0.6,0l0,0.3l-0.7,0l0,0.9l-0.4,0l0.1-2l1.2,0l0.1,0.3l-0.8,0L24.9,5.2z"/>
	<path class="st1" d="M27.4,4.6l-0.3,2l-0.4-0.1l0.3-2L27.4,4.6z"/>
	<path class="st1" d="M29,5.6l-0.3,1.3l-0.4-0.1l0.5-2l0.4,0.1l0.6,1.6l0.3-1.3l0.4,0.1l-0.5,2l-0.4-0.1L29,5.6z"/>
	<path class="st1" d="M30.8,7.5L32.4,6l0.3,0.1l-0.1,2.2l-0.4-0.1l0-0.5l-0.7-0.3l-0.4,0.4L30.8,7.5z M31.8,7.1l0.5,0.2l0-0.8
		L31.8,7.1z"/>
	<path class="st1" d="M33.9,8.7l0.8,0.5l-0.1,0.3l-1.1-0.7L34.5,7l0.3,0.2L33.9,8.7z"/>
	<path class="st1" d="M36.9,8.7l-1.2,1.6L35.4,10l1.2-1.6L36.9,8.7z"/>
	<path class="st1" d="M37,11l0.8,0.8L37.6,12l-1.2-1.1l0.2-0.2l1.8-0.2l-0.7-0.7l0.2-0.3l1.1,1l-0.2,0.3L37,11z"/>
	<path class="st1" d="M38.1,12.6l2.1-0.6l0.2,0.3l-1.1,1.9l-0.3-0.3l0.3-0.5l-0.5-0.6l-0.5,0.2L38.1,12.6z M39.2,12.6l0.3,0.4
		l0.4-0.7L39.2,12.6z"/>
	<path class="st1" d="M41.6,15.8C41.3,16,41,16.1,40.8,16c-0.2-0.1-0.4-0.2-0.6-0.5l-0.4-0.7l1.8-1l0.4,0.7c0.1,0.2,0.2,0.4,0.1,0.5
		s-0.1,0.3-0.2,0.4C41.9,15.6,41.8,15.7,41.6,15.8z M41.4,15.5c0.2-0.1,0.3-0.2,0.4-0.4c0.1-0.1,0-0.3,0-0.4l-0.2-0.3L40.3,15
		l0.2,0.3c0.1,0.1,0.2,0.2,0.3,0.3C41,15.7,41.2,15.6,41.4,15.5z"/>
	<path class="st1" d="M42,16.8c0.2-0.1,0.4-0.1,0.6-0.1c0.2,0,0.3,0.1,0.5,0.2c0.1,0.1,0.2,0.3,0.3,0.4c0.1,0.2,0.1,0.4,0.1,0.6
		c0,0.2-0.1,0.3-0.2,0.5s-0.3,0.2-0.5,0.3c-0.2,0.1-0.4,0.1-0.6,0.1c-0.2,0-0.3-0.1-0.5-0.2c-0.1-0.1-0.2-0.3-0.3-0.4
		c-0.1-0.2-0.1-0.4-0.1-0.6c0-0.2,0.1-0.3,0.2-0.5C41.7,16.9,41.8,16.8,42,16.8z M43.1,17.5c0-0.1-0.1-0.2-0.2-0.2
		c-0.1-0.1-0.2-0.1-0.3-0.1s-0.3,0-0.4,0.1c-0.1,0.1-0.2,0.1-0.3,0.2c-0.1,0.1-0.1,0.2-0.2,0.3c0,0.1,0,0.2,0,0.3
		c0,0.1,0.1,0.2,0.2,0.3s0.2,0.1,0.3,0.1s0.3,0,0.4-0.1c0.1,0,0.2-0.1,0.3-0.2c0.1-0.1,0.1-0.2,0.2-0.3
		C43.1,17.7,43.1,17.6,43.1,17.5z"/>
	<path class="st1" d="M43.3,21l0.1,0.8l-0.3,0.1L43,21.1L43.3,21z"/>
	<path class="st1" d="M43.8,24.8l0,0.6l-0.3,0.1l0-0.7l-0.9,0l0-0.4l2,0l0,1.2l-0.3,0.1l0-0.8L43.8,24.8z"/>
	<path class="st1" d="M44.4,27.3l-2-0.3l0-0.4l2,0.3L44.4,27.3z"/>
	<path class="st1" d="M43.5,28.9l-1.3-0.3l0.1-0.4l2,0.5l-0.1,0.4l-1.6,0.6l1.3,0.3l-0.1,0.4l-2-0.5l0.1-0.4L43.5,28.9z"/>
	<path class="st1" d="M41.5,30.7l1.6,1.5l-0.1,0.3l-2.2-0.1l0.1-0.4l0.5,0l0.3-0.7l-0.4-0.4L41.5,30.7z M42,31.7l-0.2,0.5l0.8,0
		L42,31.7z"/>
	<path class="st1" d="M40.4,33.8l-0.5,0.8l-0.3-0.1l0.7-1.2l1.7,1.1l-0.2,0.3L40.4,33.8z"/>
	<path class="st1" d="M40.4,36.8l-1.6-1.2l0.2-0.3l1.6,1.2L40.4,36.8z"/>
	<path class="st1" d="M38.1,36.9l-0.8,0.9L37,37.6l1.1-1.2l0.3,0.2l0.2,1.8l0.7-0.7l0.3,0.2l-1,1.1l-0.3-0.2L38.1,36.9z"/>
	<path class="st1" d="M36.5,38.1l0.6,2.1l-0.3,0.2L35,39.3l0.3-0.3l0.5,0.3l0.6-0.5l-0.2-0.5L36.5,38.1z M36.5,39.1l-0.4,0.3
		l0.7,0.4L36.5,39.1z"/>
	<path class="st1" d="M33.3,41.5c-0.2-0.3-0.2-0.5-0.2-0.8c0.1-0.2,0.2-0.4,0.5-0.6l0.7-0.4l1,1.8l-0.7,0.4
		c-0.2,0.1-0.3,0.2-0.5,0.2c-0.2,0-0.3-0.1-0.5-0.1C33.5,41.8,33.4,41.7,33.3,41.5z M33.6,41.3c0.1,0.2,0.2,0.3,0.4,0.4
		c0.1,0.1,0.3,0,0.4,0l0.3-0.2l-0.7-1.2l-0.3,0.2c-0.1,0.1-0.2,0.2-0.3,0.3C33.4,40.9,33.5,41.1,33.6,41.3z"/>
	<path class="st1" d="M32.3,42c0.1,0.2,0.1,0.4,0.1,0.6c0,0.2-0.1,0.3-0.2,0.5s-0.3,0.2-0.4,0.3c-0.2,0.1-0.4,0.1-0.6,0.1
		c-0.2,0-0.3-0.1-0.5-0.2c-0.1-0.1-0.2-0.3-0.3-0.5c-0.1-0.2-0.1-0.4-0.1-0.6c0-0.2,0.1-0.3,0.2-0.5c0.1-0.1,0.3-0.2,0.4-0.3
		c0.2-0.1,0.4-0.1,0.5-0.1s0.3,0.1,0.5,0.2C32.1,41.6,32.2,41.8,32.3,42z M31.7,43c0.1,0,0.2-0.1,0.2-0.2c0.1-0.1,0.1-0.2,0.1-0.3
		s0-0.3-0.1-0.4c-0.1-0.1-0.1-0.2-0.2-0.3c-0.1-0.1-0.2-0.1-0.3-0.2c-0.1,0-0.2,0-0.3,0c-0.1,0-0.2,0.1-0.3,0.2
		c-0.1,0.1-0.1,0.2-0.1,0.3c0,0.1,0,0.3,0.1,0.4c0,0.1,0.1,0.2,0.2,0.3c0.1,0.1,0.2,0.1,0.3,0.2S31.5,43.1,31.7,43z"/>
	<path class="st1" d="M28.1,43.2l-0.8,0.1l-0.1-0.3l0.8-0.1L28.1,43.2z"/>
</g>
</svg>
