<?xml version="1.0" encoding="UTF-8"?>
<svg id="Camada_2" data-name="Camada 2" xmlns="http://www.w3.org/2000/svg" xmlns:xlink="http://www.w3.org/1999/xlink" viewBox="0 0 16.8 11.94">
  <defs>
    <style>
      .cls-1 {
        fill: #fff7eb;
      }

      .cls-1, .cls-2, .cls-3 {
        stroke-width: 0px;
      }

      .cls-2 {
        fill: #ff7122;
      }

      .cls-3 {
        fill: url(#Gradiente_sem_nome_7);
        opacity: .15;
      }
    </style>
    <linearGradient id="Gradiente_sem_nome_7" data-name="Gradiente sem nome 7" x1="2.79" y1=".53" x2="14" y2="11.74" gradientUnits="userSpaceOnUse">
      <stop offset=".01" stop-color="#fff7eb"/>
      <stop offset=".34" stop-color="#fff5e8"/>
      <stop offset=".48" stop-color="#fff0e1"/>
      <stop offset=".59" stop-color="#ffe8d4"/>
      <stop offset=".68" stop-color="#ffdcc3"/>
      <stop offset=".76" stop-color="#ffccab"/>
      <stop offset=".83" stop-color="#ffb98e"/>
      <stop offset=".89" stop-color="#ffa26c"/>
      <stop offset=".95" stop-color="#ff8845"/>
      <stop offset="1" stop-color="#ff7122"/>
    </linearGradient>
  </defs>
  <g id="Camada_2-2" data-name="Camada 2">
    <g>
      <rect class="cls-1" y=".33" width="16.8" height="11.61" rx="3" ry="3"/>
      <path class="cls-3" d="m13.8,11.07H3c-1.17,0-2.12-.95-2.12-2.12V3.33c0-1.17.95-2.12,2.12-2.12h10.8c1.17,0,2.12.95,2.12,2.12v5.61c0,1.17-.95,2.12-2.12,2.12ZM3,1.46c-1.03,0-1.88.84-1.88,1.88v5.61c0,1.03.84,1.88,1.88,1.88h10.8c1.03,0,1.88-.84,1.88-1.88V3.33c0-1.03-.84-1.88-1.88-1.88H3Z"/>
      <g>
        <path class="cls-2" d="m4.86,3.79c-.07-.1-.14-.18-.2-.27-.02-.03-.04-.04-.08-.02-.13.06-.21.02-.26-.11-.23-.65-.42-1.32-.5-2.01-.02-.15-.02-.29-.03-.44-.02-.22.07-.4.25-.54.25-.19.54-.26.84-.32C5.2.03,5.53,0,5.86,0c.64,0,1.28,0,1.92,0,.21,0,.28.08.23.29-.08.33-.23.64-.46.89-.04.04-.05.08-.05.13,0,.4,0,.8,0,1.19,0,.09.02.17.05.26.16.47.01.83-.42,1.06,0,0-.02,0-.06.02.22.07.41.14.6.2.09.03.15.08.21.15.46.62.93,1.24,1.4,1.87.05.07.08.08.16.04.27-.14.55-.27.82-.41.04-.02.09-.06.13-.04.1.04.13-.02.17-.09.1-.19.21-.38.32-.57.17-.31.52-.33.73-.05.03.04.05.05.09.02.26-.23.48-.22.77.05.15.14.26.28.21.5-.02.06-.05.11-.09.16-.32.41-.67.8-1.16,1.03-.03.01-.05.02-.05.06,0,.11-.07.15-.16.19-.67.27-1.33.53-2,.8-.1.04-.18.02-.26-.06-.39-.39-.78-.77-1.17-1.16-.03-.03-.05-.05-.08-.08-.03.04-.02.09-.02.13,0,.84,0,1.67,0,2.51,0,.23-.03.27-.26.27-.07,0-.08.03-.08.09,0,.35,0,.7,0,1.05,0,.08-.01.11-.1.11-.25,0-.25,0-.25-.25,0-.3,0-.6,0-.91,0-.07-.02-.09-.09-.09-.08,0-.16,0-.24,0-.14,0-.2-.07-.2-.21,0-.25,0-.51,0-.76,0-.07-.02-.09-.09-.09-.3,0-.6,0-.89,0-.07,0-.09.02-.09.09,0,.24,0,.47,0,.71,0,.21-.05.26-.26.26-.11,0-.21,0-.32,0-.1-.01-.12.03-.12.12,0,.34,0,.68,0,1.02,0,.09-.02.1-.11.1-.25,0-.25,0-.25-.25,0-.09.04-.21-.02-.26-.05-.04-.17-.01-.26-.02-.08,0-.16,0-.24,0-.31,0-.54-.23-.54-.54,0-.15,0-.3,0-.45,0-.04,0-.07-.05-.08-.1-.03-.14-.12-.12-.22.05-.47.11-.94.16-1.4.08-.73.17-1.46.25-2.19.04-.32.07-.64.11-.95.01-.1.07-.15.16-.17.35-.09.71-.18,1.08-.27Zm1.94.34v.13c0,1.18,0,2.36,0,3.55,0,.37,0,.74,0,1.1,0,.08.02.1.1.1.1,0,.2,0,.3,0,.11.01.13-.03.12-.13,0-.94,0-1.87,0-2.81,0-.1,0-.19.12-.24.11-.04.17.03.24.09.46.46.92.91,1.38,1.37.07.07.12.08.21.04.32-.14.65-.26.97-.39.21-.09.43-.17.65-.26-.17-.2-.33-.39-.49-.58-.05-.06-.08-.06-.15-.03-.34.17-.68.34-1.01.51-.06.03-.09.03-.12-.04-.05-.11-.09-.22-.15-.31-.44-.6-.89-1.19-1.34-1.79-.02-.03-.04-.06-.07-.07-.25-.08-.49-.16-.75-.25Zm-1.78,2.44c0-.78,0-1.56,0-2.34,0-.09-.02-.11-.11-.09-.29.08-.58.15-.87.22-.06.01-.09.04-.1.11-.16,1.37-.32,2.74-.48,4.11,0,.06,0,.08.07.08.17,0,.34,0,.51,0,.09,0,.1-.03.1-.11,0-.71,0-1.43,0-2.14,0-.23,0-.22.23-.23.1,0,.13.02.13.12,0,.87,0,1.73,0,2.6,0,.08.01.12.11.11.1,0,.2,0,.3,0,.09,0,.12-.02.12-.12,0-.78,0-1.55,0-2.33Zm.98-3.03c.25,0,.5,0,.75,0,.39,0,.59-.27.46-.65-.05-.14-.07-.28-.07-.43,0-.29,0-.58,0-.87,0-.08-.02-.09-.09-.06-.08.03-.17.06-.25.07-.51.1-1.03.15-1.54.17-.07,0-.11.02-.13.1-.07.25-.15.5-.22.75-.04.15-.15.32-.12.46.03.14.18.26.27.4.04.06.08.07.15.07.26,0,.53,0,.79,0Zm-1.5-.81s.02-.07.03-.1c.1-.34.21-.68.31-1.02.05-.16.09-.18.25-.19.54-.01,1.07-.07,1.6-.16.42-.07.77-.38.92-.9-.22,0-.43,0-.65,0-.64,0-1.28-.04-1.92.07-.26.04-.51.09-.74.23-.1.06-.17.14-.16.27.02.62.16,1.21.36,1.8Zm.91,2.67s-.02,0-.02,0c0,.01,0,.03,0,.04,0,.81,0,1.62,0,2.43,0,.08.03.09.1.09.29,0,.57,0,.86,0,.1,0,.12-.02.12-.12,0-1.23,0-2.46,0-3.69,0-.27,0-.27-.27-.26-.07,0-.09.01-.07.09.11.41.21.82.31,1.23.02.08.01.16-.03.23-.1.2-.2.4-.3.6-.04.08-.09.15-.19.15-.1,0-.15-.07-.18-.15-.11-.21-.21-.43-.32-.64Zm5.9-.18c0-.05,0-.09-.04-.11-.05-.02-.07.02-.09.06-.14.25-.28.5-.42.74-.02.04-.02.07.01.11.1.12.21.23.3.35.05.06.09.07.16.03.37-.19.68-.45.93-.78.21-.28.23-.18-.05-.43-.05-.04-.09-.04-.14,0-.1.08-.2.15-.3.22-.09.06-.17.16-.3.08-.12-.07-.09-.18-.07-.28Zm-7.68,4.08c0,.09,0,.16,0,.23,0,.13.07.2.2.2.1,0,.19,0,.29,0q.22,0,.22-.22c0-.07.01-.14-.09-.16-.06-.01-.08-.08-.09-.14,0-.06.03-.14-.02-.18-.04-.03-.12,0-.18-.01-.01,0-.02,0-.03,0-.09,0-.22-.04-.28.02-.06.06,0,.18-.02.26Zm1.75-4.09s.03-.05.04-.07c.08-.33.17-.66.25-.99.07-.26.07-.26-.2-.25-.07,0-.08.03-.08.09,0,.4,0,.81,0,1.22Zm.53.41c.04-.08.08-.15.11-.22.02-.05.06-.08.05-.14-.05-.2-.1-.4-.16-.63-.06.23-.11.43-.16.63,0,.02,0,.04,0,.06.05.09.09.19.15.3Z"/>
        <path class="cls-2" d="m11.39.34q.03-.34.36-.34c.17,0,.33,0,.5,0,.14,0,.21.06.21.21,0,.27,0,.54,0,.81,0,.08.02.12.08.16.12.08.24.17.36.26.07.05.11.12.08.21-.03.09-.1.12-.19.12-.01,0-.02,0-.03,0-.04.02-.12-.04-.12.05,0,.08-.05.17.09.21.27.08.54.18.81.26.12.04.17.11.16.23,0,.5,0,1,0,1.5,0,.16-.06.22-.22.22-1.6,0-3.2,0-4.81,0-.09,0-.1-.03-.1-.11,0-.25,0-.25.25-.25.09,0,.21.04.26-.02.04-.05.02-.17.02-.26,0-.57,0-1.13,0-1.7,0-.11-.02-.17-.14-.14-.04,0-.09,0-.13-.02-.12-.07-.12-.22,0-.31.31-.22.61-.45.92-.67.32-.23.64-.47.96-.7.12-.09.16-.09.29,0,.12.09.24.18.38.27Zm-.52,1.43c-.44,0-.88,0-1.33,0-.06,0-.09,0-.09.08,0,.66,0,1.31,0,1.97,0,.06.02.08.07.08.17,0,.35,0,.52,0,.09,0,.12-.02.12-.11,0-.36,0-.72,0-1.08,0-.16.06-.22.22-.22.32,0,.64,0,.96,0,.17,0,.23.06.23.23,0,.36,0,.72,0,1.08,0,.09.02.11.1.1.17,0,.34,0,.51,0,.08,0,.1-.02.1-.1,0-.64,0-1.28,0-1.92,0-.09-.03-.11-.11-.11-.43,0-.87,0-1.3,0Zm-1.39-.36h2.76c-.12-.07-.13-.19-.13-.31,0-.22,0-.43,0-.65,0-.19-.16-.06-.23-.09-.06-.02-.13-.02-.12.09,0,.07,0,.14,0,.21,0,.08-.02.15-.09.19-.08.04-.15.02-.22-.03-.17-.12-.33-.24-.5-.37-.05-.04-.09-.05-.15,0-.2.16-.41.3-.62.46-.22.16-.45.33-.69.5Zm3.16,1.72c0,.23,0,.46,0,.68,0,.06.02.08.08.08.18,0,.37,0,.55,0,.05,0,.08,0,.08-.07,0-.38,0-.76,0-1.15,0-.05-.02-.08-.07-.09-.19-.06-.38-.12-.56-.19-.07-.02-.08,0-.08.06,0,.22,0,.45,0,.67Zm-2.12.22c0,.15,0,.31,0,.46,0,.06.02.08.08.08.18,0,.37,0,.55,0,.06,0,.08-.01.08-.07,0-.31,0-.61,0-.92,0-.06-.02-.07-.08-.07-.18,0-.37,0-.55,0-.07,0-.08.03-.08.09,0,.14,0,.29,0,.43Z"/>
        <path class="cls-2" d="m6.1,10.08c0,.15,0,.3,0,.45,0,.06-.02.08-.08.08-.27,0-.27,0-.27-.26,0-.24,0-.48,0-.72,0-.07.02-.09.09-.09.27,0,.27,0,.27.27,0,.09,0,.18,0,.26Z"/>
      </g>
    </g>
  </g>
</svg>