<?xml version="1.0" encoding="UTF-8"?>
<svg id="Camada_2" data-name="Camada 2" xmlns="http://www.w3.org/2000/svg" viewBox="0 0 11.95 11.95">
  <defs>
    <style>
      .cls-1 {
        fill: #ff7122;
      }

      .cls-1, .cls-2 {
        stroke-width: 0px;
      }

      .cls-2 {
        fill: #13293d;
      }
    </style>
  </defs>
  <g id="Camada_1-2" data-name="Camada 1">
    <g>
      <rect class="cls-1" x="0" y="0" width="11.95" height="11.95" rx="5.97" ry="5.97"/>
      <g>
        <path class="cls-2" d="m5.97,7.35H1.99c-.16,0-.29-.13-.29-.29v-1.16c0-.16.13-.29.29-.29s.29.13.29.29v.87h3.41v-1.13h-3.08c-.16,0-.29-.13-.29-.29s.13-.29.29-.29h3.37c.16,0,.29.13.29.29v1.7c0,.16-.13.29-.29.29Z"/>
        <path class="cls-2" d="m9.23,7.35h-3.26c-.16,0-.29-.13-.29-.29v-1.7c0-.16.13-.29.29-.29h3.98c.16,0,.29.13.29.29v1.05c0,.16-.13.29-.29.29s-.29-.13-.29-.29v-.77h-3.41v1.13h2.98c.16,0,.29.13.29.29s-.13.29-.29.29Z"/>
        <path class="cls-2" d="m8.12,5.65h-3.98c-.16,0-.29-.13-.29-.29v-1.7c0-.16.13-.29.29-.29h3.54c.16,0,.29.13.29.29s-.13.29-.29.29h-3.25v1.13h3.41v-.93c0-.16.13-.29.29-.29s.29.13.29.29v1.21c0,.16-.13.29-.29.29Z"/>
        <path class="cls-2" d="m7.51,9.05h-3.3c-.16,0-.29-.13-.29-.29s.13-.29.29-.29h3.02v-1.13h-3.41v.82c0,.16-.13.29-.29.29s-.29-.13-.29-.29v-1.11c0-.16.13-.29.29-.29h3.98c.16,0,.29.13.29.29v1.7c0,.16-.13.29-.29.29Z"/>
      </g>
    </g>
  </g>
</svg>