<?xml version="1.0" encoding="UTF-8"?>
<svg id="Camada_2" data-name="Camada 2" xmlns="http://www.w3.org/2000/svg" xmlns:xlink="http://www.w3.org/1999/xlink" viewBox="0 0 16.8 11.97">
  <defs>
    <style>
      .cls-1 {
        fill: #fff7eb;
      }

      .cls-1, .cls-2, .cls-3 {
        stroke-width: 0px;
      }

      .cls-2 {
        fill: #ff7122;
      }

      .cls-3 {
        fill: url(#Gradiente_sem_nome_7);
        opacity: .15;
      }
    </style>
    <linearGradient id="Gradiente_sem_nome_7" data-name="Gradiente sem nome 7" x1="2.79" y1=".56" x2="14" y2="11.76" gradientUnits="userSpaceOnUse">
      <stop offset=".01" stop-color="#fff7eb"/>
      <stop offset=".34" stop-color="#fff5e8"/>
      <stop offset=".48" stop-color="#fff0e1"/>
      <stop offset=".59" stop-color="#ffe8d4"/>
      <stop offset=".68" stop-color="#ffdcc3"/>
      <stop offset=".76" stop-color="#ffccab"/>
      <stop offset=".83" stop-color="#ffb98e"/>
      <stop offset=".89" stop-color="#ffa26c"/>
      <stop offset=".95" stop-color="#ff8845"/>
      <stop offset="1" stop-color="#ff7122"/>
    </linearGradient>
  </defs>
  <g id="Camada_2-2" data-name="Camada 2">
    <g>
      <rect class="cls-1" y=".35" width="16.8" height="11.61" rx="3" ry="3"/>
      <path class="cls-3" d="m13.8,11.09H3c-1.17,0-2.12-.95-2.12-2.12V3.35c0-1.17.95-2.12,2.12-2.12h10.8c1.17,0,2.12.95,2.12,2.12v5.61c0,1.17-.95,2.12-2.12,2.12ZM3,1.48c-1.03,0-1.88.84-1.88,1.88v5.61c0,1.03.84,1.88,1.88,1.88h10.8c1.03,0,1.88-.84,1.88-1.88V3.35c0-1.03-.84-1.88-1.88-1.88H3Z"/>
      <g>
        <path class="cls-2" d="m4.32,10.12c-.15-.04-.3-.08-.43-.16-.42-.26-.62-.75-.5-1.23.12-.47.55-.81,1.04-.81.34,0,.69,0,1.03,0,.07,0,.1-.01.09-.09,0-.15,0-.31,0-.46,0-.07-.02-.08-.08-.08-.33,0-.66,0-.98,0-.31,0-.51-.2-.51-.51,0-.5,0-.99,0-1.49,0-.33.19-.53.52-.52.1,0,.12-.03.11-.12,0-.32.19-.51.51-.51.29,0,.58,0,.87,0,.31,0,.51.2.5.5,0,.1.02.13.13.13.19,0,.19,0,.19-.2,0-.49,0-.98,0-1.47,0-.12.05-.19.15-.25,1.5-.76,2.99-1.53,4.49-2.29.07-.03.11-.08.14-.15.13-.32.5-.46.81-.33.32.13.48.49.34.81-.05.1-.04.19-.02.29.2,1.21.39,2.43.59,3.64.04.22.06.43.11.65v1.61s-.02.05-.02.07c-.09.34-.39.59-.73.59-.69,0-1.37,0-2.06,0-.11,0-.18-.06-.18-.16,0-.09.07-.16.18-.16.1,0,.2,0,.31,0,.05,0,.08-.02.11-.06.46-.61.93-1.21,1.4-1.82.03-.04.04-.08.04-.14-.04-.32-.09-.65-.13-.97-.1-.76-.2-1.53-.31-2.29-.04-.3-.08-.6-.12-.91-.96.58-1.92,1.15-2.88,1.73.28.16.41.4.49.69.1.35.23.69.33,1.04.05.18.14.29.31.37.29.13.43.38.44.7,0,.34,0,.68,0,1.01,0,.28-.2.48-.48.48-.13,0-.26,0-.38,0-.06,0-.09.01-.08.08,0,.15,0,.31,0,.46,0,.08.02.09.09.09.34,0,.69,0,1.03,0,.56,0,1.01.43,1.07,1,.06.53-.3,1.04-.83,1.17-.04.01-.09,0-.13.03h-6.58Zm3.29-1.89c-.49,0-.98,0-1.47,0-.56,0-1.13,0-1.69,0-.5,0-.86.46-.77.95.08.37.4.62.81.62,2.07,0,4.15,0,6.22,0,.03,0,.05,0,.08,0,.41-.02.74-.36.75-.77,0-.45-.34-.8-.8-.8-1.04,0-2.09,0-3.13,0Zm-.32-1.26c.83,0,1.65,0,2.48,0,.11,0,.22,0,.32,0,.13,0,.19-.06.19-.19,0-.06,0-.11,0-.17.01-.09-.02-.11-.11-.11-1.05,0-2.1,0-3.15,0-.16,0-.21-.05-.21-.21,0-.37,0-.75,0-1.12,0-.07-.02-.09-.09-.09-.74,0-1.48,0-2.22,0-.15,0-.21.05-.21.21,0,.49,0,.97,0,1.46,0,.18.05.23.23.23.92,0,1.84,0,2.76,0Zm1.8-3.47s0-.04-.01-.05c-.13-.18-.31-.26-.52-.26-.44,0-.89,0-1.33,0-.08,0-.1.02-.1.1,0,.93,0,1.87,0,2.8,0,.08.03.1.1.1.69,0,1.38,0,2.07,0,.3,0,.6,0,.91,0,.06,0,.09-.02.08-.08,0-.09,0-.18,0-.27.03-.34-.28-.58-.6-.59-.68-.02-1.35,0-2.03,0-.15,0-.21-.05-.21-.21,0-.44,0-.88,0-1.32,0-.16.05-.21.21-.21.45,0,.89,0,1.34,0h.1Zm-1.49,3.78c-.54,0-1.09,0-1.63,0-.08,0-.1.02-.1.1,0,.14,0,.29,0,.43,0,.08.02.1.1.1.66,0,1.32,0,1.98,0,.43,0,.87,0,1.3,0,.08,0,.1-.02.1-.1,0-.15,0-.3,0-.44,0-.07-.02-.09-.09-.09-.55,0-1.1,0-1.64,0Zm1.98-2.37s0-.02,0-.03c-.11-.34-.22-.67-.33-1.01-.02-.05-.05-.06-.09-.06-.44,0-.88,0-1.32,0-.06,0-.08.02-.08.08,0,.31,0,.62,0,.93,0,.08.02.09.09.09.55,0,1.1,0,1.65,0,.03,0,.05,0,.08,0Zm1.82,2.51s.02.01.03.01c.41,0,.83,0,1.24,0,.24,0,.44-.21.45-.45,0-.4,0-.81,0-1.21,0-.05,0-.07-.06-.07-.32-.01-.32-.02-.51.23-.02.03-.04.06-.07.09-.36.47-.72.93-1.08,1.4Zm-3.73-4.57s0,.01,0,.02c.3,0,.6,0,.9,0,.04,0,.07-.02.11-.04.97-.58,1.94-1.17,2.91-1.74.13-.07.02-.13,0-.18-.02-.09-.07-.02-.1,0-1.25.64-2.5,1.28-3.75,1.92-.02.01-.04.02-.07.04Zm5.26,2.54c.16,0,.16,0,.14-.16-.08-.5-.16-1-.24-1.5-.13-.8-.26-1.6-.39-2.4,0-.03.01-.1-.05-.07-.05.02-.15-.03-.13.1.07.53.14,1.06.21,1.59.1.76.2,1.53.3,2.29.02.15.02.15.16.15Zm-7.37-.63c.19,0,.37,0,.56,0,.03,0,.06.01.07-.03.04-.17-.04-.28-.21-.28-.27,0-.54,0-.82,0-.2,0-.24.05-.24.25,0,.06.02.07.07.07.19,0,.37,0,.56,0ZM12.49.66c0-.17-.14-.31-.32-.31-.18,0-.32.15-.31.32,0,.17.15.31.32.31.17,0,.31-.15.31-.32Z"/>
        <path class="cls-2" d="m10.91,10.15h-6.6s-.04-.01-.04-.01c-.13-.04-.27-.07-.4-.15-.43-.26-.64-.78-.51-1.27.13-.49.57-.83,1.07-.84.34,0,.67,0,1.04,0,.03,0,.05,0,.05,0,0,0,0-.01,0-.04,0-.13,0-.28,0-.47,0-.03,0-.04,0-.04,0,0-.01,0-.04,0h0c-.33,0-.66,0-.98,0-.33,0-.54-.21-.54-.55v-1.49c0-.17.05-.32.15-.42.09-.09.23-.14.39-.14,0,0,.01,0,.02,0,.03,0,.05,0,.06-.01.01-.01.01-.04.01-.07,0-.16.05-.3.14-.4.1-.1.24-.15.41-.15h.87c.16,0,.3.05.4.15.09.1.14.23.14.39,0,.05,0,.07.01.08.01.01.04.02.07.01h.02q.14,0,.14-.16v-.37c0-.36,0-.73,0-1.1,0-.13.05-.21.17-.28.86-.44,1.71-.87,2.56-1.31.64-.33,1.29-.66,1.93-.98.06-.03.1-.07.12-.13.14-.33.53-.49.86-.35.16.07.3.2.36.37.06.16.06.33,0,.49-.04.09-.04.17-.02.27.2,1.21.39,2.43.59,3.64.01.06.02.12.03.18.02.15.04.31.09.46h0v1.64h-.01s0,.02,0,.04c0,0,0,.02,0,.03-.09.36-.41.62-.77.62-.55,0-1.11,0-1.65,0h-.41c-.13,0-.21-.08-.21-.19s.08-.19.21-.19c.1,0,.2,0,.31,0,0,0,0,0,0,0,.03,0,.05-.01.08-.04.47-.61.93-1.21,1.4-1.82.03-.03.03-.06.03-.11-.03-.24-.07-.49-.1-.73l-.45-3.39-2.79,1.67c.28.18.4.46.46.68.05.16.1.33.16.49.06.18.12.36.17.55.05.17.13.27.29.34.29.14.45.39.46.73,0,.34,0,.68,0,1.01,0,.29-.22.51-.51.52-.13,0-.26,0-.39,0,0,0,0,0,0,0-.02,0-.03,0-.03,0,0,0,0,0,0,.04,0,.19,0,.33,0,.46,0,.03,0,.04,0,.05,0,0,.02,0,.05,0h0c.34,0,.69,0,1.03,0,.58.01,1.04.44,1.11,1.03.06.55-.31,1.07-.86,1.21-.02,0-.03,0-.05,0-.03,0-.05,0-.07.02h0Zm-6.58-.07h6.56s.06-.02.09-.03c.01,0,.03,0,.04,0,.51-.13.86-.62.8-1.14-.06-.55-.5-.96-1.04-.97-.34,0-.69,0-1.03,0-.04,0-.08,0-.1-.03-.03-.03-.03-.07-.03-.1,0-.13,0-.27,0-.46,0-.03,0-.07.03-.09.03-.03.06-.03.09-.03.13,0,.25,0,.38,0,.26,0,.44-.19.44-.45,0-.33,0-.68,0-1.01,0-.32-.15-.55-.42-.67-.17-.08-.27-.2-.33-.39-.05-.18-.11-.37-.17-.54-.05-.16-.11-.33-.16-.49-.1-.33-.24-.53-.48-.67l-.05-.03.05-.03,2.93-1.76v.05s.47,3.44.47,3.44c.03.25.06.49.1.73,0,.06,0,.11-.04.16-.47.6-.93,1.21-1.4,1.82-.04.05-.08.07-.13.07h0c-.1,0-.21,0-.3,0-.09,0-.14.05-.14.12s.05.12.14.12h.41c.54,0,1.1,0,1.65,0,.33,0,.61-.24.7-.57,0,0,0-.01,0-.02,0-.02,0-.04.02-.06v-1.6c-.04-.15-.06-.31-.09-.46,0-.06-.02-.12-.03-.18-.2-1.21-.39-2.43-.59-3.64-.01-.09-.03-.19.03-.31.06-.14.06-.29,0-.43-.06-.15-.18-.27-.33-.33-.3-.13-.64.01-.77.31-.03.08-.08.13-.16.17-.64.33-1.29.66-1.93.98-.86.44-1.71.87-2.57,1.31-.1.05-.13.11-.13.21,0,.37,0,.74,0,1.1v.37c0,.21-.02.22-.21.23h-.02s-.09,0-.13-.03c-.03-.03-.04-.08-.04-.13,0-.14-.04-.25-.12-.34-.08-.08-.2-.13-.35-.13-.29,0-.58,0-.87,0-.15,0-.28.04-.36.13-.08.08-.12.2-.12.35,0,.05,0,.1-.03.12-.02.02-.06.03-.11.03,0,0-.01,0-.02,0-.14,0-.26.04-.34.12-.08.08-.13.21-.13.37v1.49c0,.3.18.48.47.48.32,0,.66,0,.98,0h0s.07,0,.09.03c.02.02.03.06.03.09,0,.19,0,.33,0,.46,0,.03,0,.07-.03.1-.02.03-.06.03-.1.03-.36,0-.7,0-1.03,0-.47,0-.89.33-1.01.79-.12.47.07.95.48,1.19.12.07.25.11.38.14h.03Zm2.25-.24h-2.07c-.43,0-.76-.26-.84-.65-.05-.25.01-.5.17-.69.15-.19.38-.3.63-.3.4,0,.81,0,1.2,0h2.85c.75,0,1.49,0,2.24,0,.23,0,.45.09.6.25.15.16.24.37.23.59,0,.43-.35.78-.78.8-.03,0-.05,0-.08,0h-4.15Zm-1.41-1.58c-.24,0-.47,0-.71,0-.23,0-.44.1-.58.28-.14.17-.2.41-.15.63.07.36.38.6.78.6,1.38,0,2.76,0,4.15,0h2.07s0,0,0,0c.03,0,.05,0,.08,0,.39-.02.71-.35.71-.73,0-.21-.07-.4-.21-.54-.14-.15-.34-.23-.55-.23-.75,0-1.49,0-2.24,0h-2.36s-.49,0-.49,0c-.16,0-.33,0-.49,0Zm4.09-.31h0c-.32,0-.64,0-.96,0h-.34s-.46,0-.46,0c-.51,0-1.01,0-1.52,0h0s-.08,0-.1-.03c-.03-.03-.03-.07-.03-.1,0-.16,0-.3,0-.43,0-.04,0-.08.03-.11.03-.03.07-.03.11-.03h0c.42,0,.83,0,1.25,0h.38s.38,0,.38,0c.42,0,.84,0,1.26,0h0s.07,0,.1.03c.03.03.03.06.03.1,0,.15,0,.29,0,.44,0,.04,0,.08-.03.1-.03.03-.07.03-.1.03Zm-.62-.07c.21,0,.41,0,.62,0h0s.05,0,.05,0c0,0,0-.02,0-.05,0-.15,0-.3,0-.45,0-.03,0-.04,0-.05,0,0-.01,0-.05,0h0c-.42,0-.84,0-1.26,0h-.76c-.42,0-.83,0-1.25,0h0s-.05,0-.05.01c0,0,0,.03,0,.06,0,.14,0,.28,0,.44,0,.03,0,.05,0,.05,0,0,.02,0,.05,0h0c.51,0,1.02,0,1.52,0h.8c.11,0,.23,0,.34,0Zm3.55-.4c-.25,0-.5,0-.75,0-.01,0-.02,0-.03,0l-.05-.03.26-.34c.28-.37.56-.73.84-1.09.02-.03.04-.06.07-.09.2-.26.21-.26.53-.25.09,0,.1.05.1.11v.4c0,.26,0,.54,0,.81,0,.26-.22.48-.48.49-.16,0-.33,0-.49,0Zm-.72-.07c.24,0,.47,0,.72,0,.16,0,.33,0,.49,0,.22,0,.41-.19.41-.42,0-.27,0-.54,0-.81v-.4s0-.03,0-.03c0,0,0,0-.03,0-.3-.02-.3-.01-.48.22-.02.03-.04.06-.06.09-.28.36-.56.73-.84,1.09l-.2.27Zm-1.48-.4s-.07,0-.11,0h-5.35c-.2,0-.26-.06-.26-.26v-1.46c0-.17.07-.24.24-.24h.68c.51,0,1.02,0,1.54,0,.04,0,.07,0,.1.03.03.03.03.06.03.1,0,.32,0,.65,0,.96v.16c0,.13.04.17.17.17h.31c.95,0,1.89,0,2.83,0h0s.09,0,.12.04c.03.03.03.08.02.12,0,.03,0,.06,0,.1,0,.02,0,.04,0,.06,0,.15-.07.23-.23.23-.04,0-.07,0-.11,0Zm-2.7-.07h2.59c.07,0,.14,0,.22,0,.11,0,.15-.04.16-.16,0-.02,0-.04,0-.06,0-.04,0-.07,0-.11,0-.03,0-.05,0-.06,0,0-.03-.01-.07-.01h0c-.94,0-1.89,0-2.83,0h-.31c-.17,0-.24-.07-.24-.24v-.16c0-.32,0-.64,0-.96,0-.03,0-.04,0-.05,0,0-.01-.01-.05,0-.51,0-1.03,0-1.54,0h-.68c-.13,0-.17.04-.17.17v1.46c0,.16.03.19.19.19.62,0,1.23,0,1.84,0h.92Zm-.06-.72c-.08,0-.13-.02-.13-.13,0-.93,0-1.87,0-2.8,0-.04,0-.08.03-.1.03-.03.06-.03.1-.03.28,0,.56,0,.84,0,.16,0,.33,0,.49,0,.23,0,.42.09.55.28.01.01.04.04.01.09v.02h-.13c-.45,0-.89,0-1.34,0-.13,0-.17.04-.17.17v1.32c0,.13.04.17.17.17.2,0,.39,0,.59,0,.47,0,.96,0,1.44,0,.19,0,.38.09.5.23.1.11.15.25.14.4,0,.09,0,.19,0,.26,0,.03,0,.06-.02.09-.02.02-.06.03-.09.03h0c-.21,0-.43,0-.65,0h-.26s-.52,0-.52,0c-.52,0-1.03,0-1.55,0Zm0-3s-.04,0-.05,0c0,0,0,.02,0,.05,0,.93,0,1.87,0,2.8,0,.06,0,.06.06.06.52,0,1.03,0,1.55,0h.78c.22,0,.43,0,.65,0h0s.04,0,.04,0c0,0,0,0,0-.04,0-.07,0-.17,0-.27.01-.13-.03-.25-.12-.35-.11-.12-.28-.2-.45-.2-.48-.01-.96-.01-1.43,0-.2,0-.39,0-.59,0-.17,0-.24-.07-.24-.24v-1.32c0-.17.07-.24.24-.24.45,0,.89,0,1.34,0h.06c-.12-.16-.29-.24-.49-.24-.16,0-.33,0-.49,0-.28,0-.56,0-.84,0h0Zm5.71,2.21c-.16,0-.18-.01-.2-.17-.07-.51-.13-1.02-.2-1.52l-.17-1.25c-.05-.37-.1-.74-.15-1.11,0-.05,0-.08.02-.1.03-.03.07-.03.1-.03.01,0,.03,0,.04,0,.03-.01.06-.01.07,0,.03.02.03.06.03.08v.02c.13.77.25,1.54.38,2.31v.09c.05.25.09.5.13.75s.08.5.12.75c.01.09.02.13,0,.17-.03.03-.07.03-.17.03Zm-.53-4.13s0,0,0,0c-.02,0-.04,0-.06,0-.02,0-.04,0-.05,0,0,0,0,.01,0,.05.05.37.1.74.15,1.11l.17,1.25c.07.5.13,1.01.2,1.51h0q.01.12.13.12c.05,0,.1,0,.11,0,0,0,0-.06,0-.11-.04-.25-.08-.5-.12-.75s-.08-.5-.12-.75v-.09c-.14-.77-.26-1.54-.39-2.31,0,0,0-.02,0-.03v-.02Zm-4.55,3.66s-.07,0-.1-.03c-.03-.03-.03-.07-.03-.1,0-.27,0-.56,0-.93,0-.03,0-.07.03-.09s.06-.03.09-.03c.38,0,.78,0,1.32,0,.04,0,.1,0,.13.08.07.23.15.45.22.68l.11.33s0,.02,0,.03v.05s-.06,0-.06,0c-.02,0-.04,0-.06,0h-.51c-.38,0-.76,0-1.14,0h0Zm0-1.11s-.04,0-.04,0,0,0,0,.04c0,.38,0,.67,0,.93,0,.03,0,.04,0,.05,0,0,.04,0,.05,0,.38,0,.76,0,1.14,0h.51s.02,0,.04,0l-.1-.32c-.07-.23-.15-.45-.22-.68,0-.03-.02-.03-.06-.03-.53,0-.94,0-1.32,0h0Zm-1.69.95s-.02,0-.03,0h0c-.14,0-.28,0-.42,0h-.29c-.13,0-.27,0-.41,0h0s-.05,0-.08-.02c-.02-.02-.03-.05-.03-.08,0-.08,0-.17.06-.22.04-.04.1-.06.22-.06h.27c.18,0,.36,0,.54,0,.09,0,.17.03.21.09.05.06.06.14.03.24-.01.05-.05.06-.08.06Zm-.03-.07s.02,0,.03,0c0,0,0,0,0,0,0,0,0,0,0,0,.02-.07.01-.13-.02-.18-.03-.04-.08-.06-.15-.06-.18,0-.36,0-.54,0h-.27c-.09,0-.14.01-.17.04s-.04.08-.04.17c0,.03,0,.03,0,.03,0,0,0,0,.03,0h0c.14,0,.28,0,.41,0h.29c.14,0,.28,0,.42,0h0Zm2.45-1.82c-.24,0-.47,0-.72,0h-.2v-.02s-.02-.01-.02-.02v-.03s.03-.02.03-.02c.02-.01.04-.02.05-.03l.54-.27c1.07-.55,2.15-1.1,3.22-1.64,0,0,0,0,.02-.01.02-.02.05-.04.09-.03.04.01.05.05.05.06,0,.01.01.02.02.04.02.03.04.06.04.1,0,.03-.03.06-.08.09-.75.44-1.51.9-2.25,1.34l-.66.4s-.07.05-.13.05Zm-.53-.07c.18,0,.36,0,.53,0,.03,0,.06-.02.09-.03l.67-.4c.74-.44,1.5-.9,2.25-1.34.04-.02.04-.04.04-.04,0-.01-.01-.03-.02-.05-.01-.02-.03-.04-.03-.06,0-.02,0-.02,0-.02,0,0-.01.01-.02.02,0,0-.02.01-.03.02-1.07.55-2.15,1.09-3.22,1.64l-.51.26h.26Zm4.14-1.82c-.19,0-.34-.15-.35-.34,0-.09.03-.18.1-.25.07-.07.15-.11.25-.11h0c.19,0,.35.15.35.35,0,.19-.15.35-.34.35h0Zm0-.63h0c-.08,0-.15.03-.2.08-.05.05-.08.13-.08.2,0,.15.13.27.28.27h0c.15,0,.28-.13.27-.28s-.13-.28-.28-.28Z"/>
      </g>
    </g>
  </g>
</svg>