<?xml version="1.0" encoding="UTF-8"?>
<svg id="Camada_2" data-name="Camada 2" xmlns="http://www.w3.org/2000/svg" viewBox="0 0 9.41 10.34">
  <defs>
    <style>
      .cls-1 {
        fill: #ff7122;
        stroke-width: 0px;
      }
    </style>
  </defs>
  <g id="Camada_2-2" data-name="Camada 2">
    <g>
      <path class="cls-1" d="m4.17,0c.37.02.82-.04,1.27.03.57.1,1.03.39,1.33.88.38.63.76,1.28,1.11,1.93.34.62.3,1.25-.03,1.87-.11.21-.35.41-.32.64.02.21.24.4.37.6.47.69.93,1.38,1.4,2.06.08.11.15.23.08.37-.07.13-.2.14-.33.14-.39,0-.79.03-1.18.03-.12,0-.18.04-.23.15-.13.29-.27.58-.4.87-.05.12-.12.21-.25.22-.15.01-.23-.09-.29-.2-.38-.66-.77-1.32-1.15-1.98-.05-.09-.1-.14-.22-.13-.3.02-.59.01-.89,0-.13,0-.2.04-.26.15-.46.8-.93,1.61-1.4,2.41-.03.04-.05.09-.08.13-.15.22-.37.21-.49-.02-.15-.3-.29-.6-.42-.91-.05-.12-.12-.16-.25-.16-.38,0-.76-.02-1.14-.03-.14,0-.29,0-.37-.15-.08-.16.03-.27.11-.38.4-.59.8-1.18,1.2-1.77.08-.11.08-.2,0-.32-.34-.57-.68-1.15-1-1.73-.35-.63-.35-1.28,0-1.91.32-.59.67-1.17,1.01-1.76C1.74.34,2.35,0,3.16,0c.31,0,.62,0,1.02,0Zm-.09,6.95c.36,0,.71,0,1.07,0,.52,0,.93-.24,1.2-.69.36-.61.71-1.21,1.06-1.83.25-.45.25-.93,0-1.38-.34-.61-.69-1.21-1.05-1.81-.28-.47-.7-.71-1.25-.71-.67,0-1.34,0-2,0-.55,0-.98.23-1.26.7-.36.61-.72,1.21-1.06,1.83-.24.43-.25.89-.01,1.32.35.65.72,1.28,1.1,1.91.27.43.67.66,1.19.65.34,0,.68,0,1.02,0Zm3.12-1.1c-.06.11-.11.17-.15.25-.25.46-.51.91-1.01,1.15-.08.04-.06.09-.03.14.3.51.6,1.02.91,1.56.11-.22.21-.42.29-.63.09-.24.25-.32.5-.31.3.01.6,0,.95,0-.5-.74-.97-1.44-1.46-2.17Zm-3.56,1.63c-.1,0-.14,0-.18,0-.57.03-1.13-.03-1.6-.41-.08-.07-.11,0-.15.05-.12.18-.25.37-.37.55-.19.28-.38.56-.59.88.38,0,.7,0,1.02,0,.18,0,.31.07.38.24.1.23.21.44.33.69.39-.68.77-1.32,1.16-2.01Z"/>
      <path class="cls-1" d="m6.62,3.78c-.03,1.4-1.18,2.53-2.55,2.5-1.42-.03-2.55-1.2-2.51-2.59.04-1.38,1.21-2.51,2.56-2.47,1.41.04,2.53,1.19,2.49,2.56Zm-2.54,1.98c1.09,0,2.01-.9,2.01-1.99,0-1.09-.9-2.01-1.99-2.02-1.09,0-2.01.9-2.01,1.99,0,1.1.9,2.01,1.99,2.01Z"/>
      <path class="cls-1" d="m2.77,3.8c0-.1.05-.18.15-.23.11-.06.2-.03.29.03.24.18.48.35.71.53.12.1.18.1.26-.05.24-.42.51-.84.76-1.25.12-.2.27-.26.41-.18.15.09.17.24.04.44-.32.53-.65,1.06-.97,1.59-.15.24-.26.26-.49.1-.34-.25-.68-.5-1.02-.75-.08-.06-.15-.13-.14-.24Z"/>
    </g>
  </g>
</svg>