<?xml version="1.0" encoding="UTF-8"?>
<svg id="Camada_2" data-name="Camada 2" xmlns="http://www.w3.org/2000/svg" viewBox="0 0 9.57 9.57">
  <defs>
    <style>
      .cls-1 {
        fill: #ff7122;
        stroke-width: 0px;
      }
    </style>
  </defs>
  <g id="Camada_2-2" data-name="Camada 2">
    <g>
      <path class="cls-1" d="m1.01,9.57c-.25,0-.51-.11-.71-.31-.24-.24-.35-.57-.29-.88.06-.29.2-.54.43-.77l1.78-1.78c-.27-.49-.42-.96-.49-1.44-.08-.66,0-1.29.23-1.88.41-1.02,1.13-1.76,2.13-2.19.4-.17.82-.27,1.26-.3h.09s.45,0,.45,0c.48.03.91.14,1.29.31,1.33.61,2.12,1.65,2.33,3.1.01.08.02.16.03.23v.08s-.03.69-.03.69c-.2,1.38-.93,2.4-2.17,3.04-.61.31-1.29.44-2.03.38-.55-.05-1.08-.21-1.57-.49,0,0-.01,0-.02-.01,0,0-.01.01-.02.02l-1.77,1.77c-.23.23-.48.38-.77.43-.06.01-.12.02-.17.02ZM5.8.5h-.34s-.03.01-.06.01c-.38.02-.74.11-1.09.26-.88.38-1.5,1.02-1.87,1.92-.2.51-.27,1.06-.2,1.63.06.44.2.87.43,1.26.14.24.11.4-.08.6l-1.79,1.79c-.16.16-.26.33-.3.52-.03.14.03.31.15.43.12.13.29.18.43.15.19-.04.35-.13.52-.3l1.77-1.77c.22-.22.37-.24.64-.09.43.24.89.39,1.37.43.63.06,1.23-.05,1.75-.32,1.09-.56,1.74-1.46,1.91-2.66l.03-.26v-.36c-.01-.1-.02-.17-.03-.24-.19-1.29-.86-2.18-2.05-2.72-.33-.15-.7-.24-1.1-.27h-.09Zm-.14,6.4h-.05c-.8-.01-1.55-.34-2.11-.91-.55-.57-.84-1.31-.83-2.09.03-1.65,1.33-2.93,2.96-2.93h.03c1.65.01,2.95,1.32,2.95,2.98h0c-.01.81-.33,1.55-.9,2.11-.55.55-1.28.84-2.05.84Zm-.03-5.43c-1.36,0-2.44,1.07-2.46,2.44-.01.65.23,1.27.69,1.73.46.48,1.09.75,1.76.76h.04c.64,0,1.24-.25,1.7-.7.47-.46.73-1.09.75-1.76,0-1.38-1.08-2.46-2.46-2.48h-.02Z"/>
      <path class="cls-1" d="m5.71,1.9c.31,0,.58.06.83.16.18.07.26.26.2.43-.06.17-.25.26-.43.19-.2-.07-.41-.13-.63-.11-.56.04-.98.3-1.23.81-.07.14-.16.26-.34.27-.25,0-.41-.25-.3-.48.29-.63.77-1.04,1.44-1.21.16-.04.32-.05.46-.06Z"/>
    </g>
  </g>
</svg>