<?xml version="1.0" encoding="UTF-8"?>
<svg id="Camada_2" data-name="Camada 2" xmlns="http://www.w3.org/2000/svg" viewBox="0 0 9.3 9.3">
  <defs>
    <style>
      .cls-1 {
        fill: #ff7122;
        stroke-width: 0px;
      }
    </style>
  </defs>
  <g id="Camada_2-2" data-name="Camada 2">
    <g>
      <path class="cls-1" d="m4.94,0c.17.02.34.05.51.07.17.02.33.07.49.11.18.05.27.21.22.37-.05.16-.2.24-.38.19-.51-.15-1.03-.2-1.55-.14-.69.07-1.32.3-1.89.69-.89.62-1.48,1.47-1.68,2.54-.29,1.52.15,2.81,1.29,3.86.59.55,1.31.86,2.11.99,1.67.26,3.41-.62,4.19-2.13.5-.96.6-1.97.31-3.01-.07-.25.1-.43.28-.42.13,0,.23.09.27.22.14.5.21,1.01.18,1.53-.05,1.01-.39,1.92-1.03,2.7-.8.97-1.82,1.55-3.07,1.69-2.35.27-4.48-1.21-5.06-3.49-.06-.25-.1-.5-.12-.75,0-.03-.01-.06-.02-.09,0-.19,0-.39,0-.58.03-.21.05-.41.09-.62C.44,1.89,1.98.38,3.84.07,4.01.04,4.19.02,4.36,0c.19,0,.39,0,.58,0Z"/>
      <path class="cls-1" d="m7.69,0c.16.07.22.19.22.36.01.3.05.59.07.89,0,.06.02.08.08.08.32.02.64.05.96.07.13,0,.22.07.27.19.05.12.02.23-.07.32-.34.34-.68.69-1.03,1.03-.05.05-.12.08-.19.09-.4.04-.8.08-1.2.12-.07,0-.13.02-.2.02-.05,0-.07.04-.1.07-.54.53-1.07,1.07-1.61,1.61-.08.08-.17.13-.29.1-.22-.04-.31-.3-.17-.47.02-.03.05-.05.07-.07.53-.53,1.05-1.05,1.58-1.58.04-.04.06-.09.07-.15.04-.43.09-.87.13-1.3.01-.11.05-.21.14-.29.31-.31.62-.61.93-.92C7.4.09,7.46.04,7.54,0h.15Zm-.31.95c-.18.18-.34.34-.51.5-.02.02-.02.04-.02.07-.03.33-.07.66-.1.98,0,.06.02.06.07.06.31-.03.61-.06.92-.09.08,0,.13-.03.19-.09.12-.13.26-.26.38-.39.02-.02.04-.03.03-.06-.19-.01-.37-.03-.56-.04-.25-.02-.34-.11-.36-.36-.01-.19-.03-.37-.04-.58Z"/>
      <path class="cls-1" d="m1.45,4.84c0-1.77,1.17-3.13,2.75-3.36.44-.06.87-.04,1.3.08.14.04.22.14.22.28,0,.13-.08.24-.2.28-.07.02-.14,0-.21,0-1.31-.32-2.62.36-3.1,1.62-.58,1.52.39,3.24,1.99,3.51,1.42.24,2.74-.65,3.04-2.06.08-.38.07-.77-.02-1.15-.02-.07-.04-.15-.01-.22.04-.13.15-.21.28-.21.13,0,.24.08.28.21.08.28.12.56.12.85,0,1.53-1.06,2.83-2.55,3.14-1.51.32-3.06-.51-3.63-1.95-.15-.38-.23-.78-.23-1Z"/>
      <path class="cls-1" d="m4.69,3.49c-.62-.02-1.12.41-1.2,1.03-.08.57.32,1.12.91,1.26.69.16,1.39-.37,1.41-1.08,0-.04,0-.08,0-.12.03-.15.17-.24.32-.23.15.02.26.14.26.3-.03.71-.35,1.25-1,1.56-1.19.58-2.58-.36-2.49-1.69.06-.95.89-1.68,1.85-1.62.05,0,.1,0,.15.03.13.04.21.18.19.31-.02.14-.13.24-.27.25-.05,0-.09,0-.14,0Z"/>
    </g>
  </g>
</svg>