<?xml version="1.0" encoding="UTF-8"?>
<svg id="Camada_2" data-name="Camada 2" xmlns="http://www.w3.org/2000/svg" viewBox="0 0 11.95 11.95">
  <defs>
    <style>
      .cls-1 {
        fill: #ff7122;
      }

      .cls-1, .cls-2 {
        stroke-width: 0px;
      }

      .cls-2 {
        fill: #13293d;
      }
    </style>
  </defs>
  <g id="Camada_1-2" data-name="Camada 1">
    <g>
      <rect class="cls-1" x="0" y="0" width="11.95" height="11.95" rx="5.97" ry="5.97"/>
      <g id="SÃMBOLO">
        <g>
          <path class="cls-2" d="m9.85,5.97c0,.3-.03.59-.1.87h-3.39l.28-.87h0s.28-.87.28-.87h0l.39-1.19.45-1.38s0,0,0,0c1.24.65,2.09,1.94,2.09,3.44"/>
          <path class="cls-2" d="m5.97,8.04h3.28c-.37.58-.88,1.06-1.5,1.38-.37.19-.78.33-1.21.39-.19.03-.38.04-.57.04s-.39-.01-.57-.04l.57-1.77h0Z"/>
          <path class="cls-2" d="m5.97,3.91h-3.28c.37-.58.88-1.06,1.5-1.38.37-.19.78-.33,1.21-.39.19-.03.38-.04.57-.04s.39.01.57.04l-.57,1.77h0Z"/>
          <path class="cls-2" d="m5.59,5.1l-.28.87-1.12,3.44c-1.24-.65-2.09-1.94-2.09-3.44,0-.3.03-.59.1-.87h3.39Z"/>
          <polyline class="cls-2" points="5.97 8.04 5.97 8.04 5.97 8.04"/>
        </g>
      </g>
    </g>
  </g>
</svg>