<?xml version="1.0" encoding="UTF-8"?>
<svg id="Camada_2" data-name="Camada 2" xmlns="http://www.w3.org/2000/svg" xmlns:xlink="http://www.w3.org/1999/xlink" viewBox="0 0 16.8 11.95">
  <defs>
    <style>
      .cls-1 {
        fill: #fff7eb;
      }

      .cls-1, .cls-2, .cls-3 {
        stroke-width: 0px;
      }

      .cls-2 {
        fill: #ff7122;
      }

      .cls-3 {
        fill: url(#Gradiente_sem_nome_7);
        opacity: .15;
      }
    </style>
    <linearGradient id="Gradiente_sem_nome_7" data-name="Gradiente sem nome 7" x1="2.79" y1=".54" x2="14" y2="11.75" gradientUnits="userSpaceOnUse">
      <stop offset=".01" stop-color="#fff7eb"/>
      <stop offset=".34" stop-color="#fff5e8"/>
      <stop offset=".48" stop-color="#fff0e1"/>
      <stop offset=".59" stop-color="#ffe8d4"/>
      <stop offset=".68" stop-color="#ffdcc3"/>
      <stop offset=".76" stop-color="#ffccab"/>
      <stop offset=".83" stop-color="#ffb98e"/>
      <stop offset=".89" stop-color="#ffa26c"/>
      <stop offset=".95" stop-color="#ff8845"/>
      <stop offset="1" stop-color="#ff7122"/>
    </linearGradient>
  </defs>
  <g id="Camada_2-2" data-name="Camada 2">
    <g>
      <rect class="cls-1" y=".34" width="16.8" height="11.61" rx="3" ry="3"/>
      <path class="cls-3" d="m13.8,11.07H3c-1.17,0-2.12-.95-2.12-2.12V3.34c0-1.17.95-2.12,2.12-2.12h10.8c1.17,0,2.12.95,2.12,2.12v5.61c0,1.17-.95,2.12-2.12,2.12ZM3,1.46c-1.03,0-1.88.84-1.88,1.88v5.61c0,1.03.84,1.88,1.88,1.88h10.8c1.03,0,1.88-.84,1.88-1.88V3.34c0-1.03-.84-1.88-1.88-1.88H3Z"/>
      <g>
        <path class="cls-2" d="m8.64.02c.1.01.2.03.29.06.2.05.4.07.59.15,1.08.45,1.76,1.25,2,2.38.16.76-.03,1.49-.36,2.19-.36.77-.82,1.47-1.34,2.14-.06.08-.11.15-.21.28.68,0,1.31.02,1.94,0,.33-.01.52.08.68.39.36.69.77,1.36,1.16,2.04.2.35.16.44-.24.44-3.19,0-6.38,0-9.56,0-.35,0-.41-.11-.24-.41.43-.75.87-1.49,1.29-2.24.09-.16.2-.22.38-.21.7,0,1.41,0,2.11,0,.03-.14-.08-.19-.13-.27-.65-.87-1.27-1.76-1.59-2.8-.17-.54-.2-1.13-.07-1.68s.39-1.03.76-1.43.87-.71,1.41-.87c.24-.07.5-.14.76-.16.12,0,.24,0,.35.01Zm-2.99,3.26c-.01.37.09.73.23,1.07.55,1.34,1.46,2.45,2.39,3.53.12.14.18.05.25-.04.75-.85,1.46-1.73,2-2.73.38-.7.69-1.42.58-2.26-.19-1.42-1.55-2.53-2.97-2.38-1.4.15-2.43,1.32-2.48,2.81Zm5.54,6.44c.52,0,1.03,0,1.55,0,.25,0,.24-.07.14-.25-.24-.41-.47-.82-.71-1.24-.37-.66-.37-.65-1.13-.64-.18,0-.29.07-.38.22-.35.55-.72,1.09-1.08,1.64-.05.07-.15.14-.11.23.04.09.16.04.24.04.5,0,.99,0,1.49,0Zm-4.82,0c.78,0,1.57,0,2.35,0,.11,0,.24.02.27-.12.03-.15-.12-.13-.2-.16-1.28-.44-2.57-.86-3.85-1.3-.15-.05-.23-.03-.31.11-.23.42-.46.83-.7,1.24-.13.22-.04.23.15.23.76,0,1.53,0,2.29,0Zm.9-2.11c-.2-.05-.31.05-.38.23-.05.11-.1.21-.17.31-.09.14-.03.19.1.23.77.25,1.54.51,2.31.77.09.03.15.03.2-.06.29-.45.59-.89.88-1.34.06-.09.06-.15-.07-.15-.45,0-.94-.12-1.22.41-.07.13-.21.24-.32.35-.14.14-.27.15-.41,0-.17-.19-.35-.37-.51-.58-.11-.14-.23-.22-.41-.18Zm-1.49,0c-.22,0-.43,0-.65,0-.07,0-.15,0-.15.1,0,.07.07.08.13.1.26.09.52.17.78.26.44.14.43.14.62-.28.06-.14.03-.17-.11-.17-.21,0-.41,0-.62,0Z"/>
        <path class="cls-2" d="m9.84,3.37c0,.44,0,.85,0,1.25,0,.24-.07.34-.32.34-.75,0-1.49-.01-2.24,0-.26,0-.33-.11-.32-.34.01-.4,0-.81,0-1.19-.07-.04-.11-.02-.14,0-.12.06-.23.08-.31-.05-.09-.14-.01-.24.09-.33.41-.35.82-.7,1.23-1.04.63-.53.46-.53,1.1,0,.4.33.79.67,1.18,1,.12.1.29.2.17.39-.11.17-.26.04-.44-.02Zm-1.43,1.18c.27,0,.54,0,.8,0,.14,0,.22-.03.22-.19,0-.42,0-.83,0-1.25,0-.06,0-.14-.04-.17-.32-.28-.65-.55-.97-.83-.27.14-.46.37-.69.55-.08.06-.15.13-.23.19-.09.07-.12.15-.12.26,0,.42,0,.83,0,1.25,0,.14.05.19.19.19.28,0,.56,0,.83,0Z"/>
      </g>
    </g>
  </g>
</svg>