<?xml version="1.0" encoding="UTF-8"?>
<svg id="Camada_1" data-name="Camada 1" xmlns="http://www.w3.org/2000/svg" xmlns:xlink="http://www.w3.org/1999/xlink" viewBox="0 0 500 500">
  <defs>
    <style>
      .cls-1 {
        fill: #f2eade;
      }

      .cls-2 {
        fill: #1b2028;
      }

      .cls-3 {
        fill: #bfa38b;
      }

      .cls-4, .cls-5, .cls-6 {
        fill: none;
      }

      .cls-5 {
        clip-path: url(#clippath);
      }

      .cls-6 {
        clip-path: url(#clippath-1);
      }

      .cls-7 {
        fill: #fff7eb;
      }
    </style>
    <clipPath id="clippath">
      <rect class="cls-4" x="67.78" y="78.3" width="343.11" height="228.62"/>
    </clipPath>
    <clipPath id="clippath-1">
      <rect class="cls-4" x="67.78" y="78.3" width="343.11" height="228.62"/>
    </clipPath>
  </defs>
  <path class="cls-3" d="m108.11,31h283.78c59.67,0,108.11,48.44,108.11,108.11v299.33c0,33.97-27.58,61.56-61.56,61.56H61.56c-33.97,0-61.56-27.58-61.56-61.56V139.11C0,79.44,48.44,31,108.11,31Z"/>
  <path class="cls-1" d="m109.67,0h280.67c60.53,0,109.67,49.14,109.67,109.67v275.56H0V109.67C0,49.14,49.14,0,109.67,0Z"/>
  <g id="Arte_4" data-name="Arte 4">
    <g class="cls-5">
      <g class="cls-6">
        <path class="cls-2" d="m231.26,284.71V100.51c0-8.82-2.94-17.64-7.19-22.21h107.12c40.17,0,69.89,24.82,69.89,56.18,0,25.8-19.92,45.4-49.64,53.89,34.95,6.86,59.44,29.07,59.44,59.11,0,34.29-30.37,59.44-69.89,59.44h-116.92c4.25-4.57,7.19-13.39,7.19-22.21m29.07-199.88v101.25h57.81c32.01,0,52.58-18.62,52.58-50.3s-18.94-50.95-47.68-50.95h-62.71Zm67.61,107.78h-67.61v107.78h72.51c28.74,0,47.68-20.58,47.68-52.58,0-37.56-24.17-55.2-52.58-55.2"/>
        <path class="cls-3" d="m174.69,186.74c-.02-1.02-.04-2.03-.04-3.05-1.97-.18-13.37-1.31-28.9-4.9-8.98-2.08-16.01-9.11-18.09-18.09-3.59-15.53-4.73-26.93-4.9-28.9-1.02,0-2.03-.02-3.05-.04-.23,1.84-1.75,13.32-5.35,28.99-2.07,9.01-9.11,16.08-18.12,18.15-15.29,3.51-26.48,4.62-28.43,4.8,0,1.02-.02,2.03-.04,3.05,1.82.23,13.09,1.73,28.52,5.24,9.04,2.06,16.12,9.14,18.18,18.18,3.51,15.43,5.01,26.7,5.24,28.52,1.02-.02,2.03-.04,3.05-.04.17-1.95,1.29-13.14,4.8-28.43,2.07-9.01,9.14-16.06,18.15-18.12,15.67-3.59,27.15-5.12,28.99-5.35"/>
      </g>
    </g>
  </g>
  <g>
    <path class="cls-7" d="m89.65,455.93v8.91h-28.86v-42.1h28.56v8.91h-19.1v7.57h17.09v8.91h-17.09v7.81h19.4Z"/>
    <path class="cls-7" d="m93.13,460.87l4.15-5.74c2.38,2.01,5.31,3.36,8.91,3.36,2.93,0,4.94-.85,4.94-2.5,0-1.77-2.38-2.38-5.55-3.11-4.94-1.1-11.47-2.56-11.47-9.88,0-6.71,5.86-10.01,12.94-10.01,5.49,0,9.46,1.95,12.39,4.09l-4.15,5.74c-2.32-1.59-4.88-2.75-7.93-2.75-2.38,0-4.33.67-4.33,2.26,0,1.77,2.38,2.32,5.55,2.99,4.88,1.04,11.47,2.56,11.47,9.82,0,6.83-5.98,10.43-13.55,10.43-5.92,0-10.31-2.2-13.36-4.7Z"/>
    <path class="cls-7" d="m136.02,441.83v11.41c0,2.38,1.28,3.72,3.91,3.72,1.59,0,2.93-.49,4.09-1.1v8.36c-1.83.92-3.6,1.34-5.98,1.34-7.57,0-10.92-4.46-10.92-10.86v-12.88h-4.7v-8.12h4.7v-7.69h8.91v7.69h7.99v8.12h-7.99Z"/>
    <path class="cls-7" d="m148.47,424.26c0-3.11,2.38-5.43,5.49-5.43s5.55,2.32,5.55,5.43-2.38,5.49-5.55,5.49-5.49-2.32-5.49-5.49Zm1.04,9.46h8.91v31.12h-8.91v-31.12Z"/>
    <path class="cls-7" d="m165.49,420.9h8.91v43.93h-8.91v-43.93Z"/>
    <path class="cls-7" d="m179.65,449.27c0-9.27,7.2-16.29,16.78-16.29s16.78,7.02,16.78,16.29-7.2,16.29-16.78,16.29-16.78-7.02-16.78-16.29Zm24.41,0c0-4.39-3.23-7.69-7.63-7.69s-7.63,3.3-7.63,7.69,3.23,7.69,7.63,7.69,7.63-3.3,7.63-7.69Z"/>
    <path class="cls-7" d="m265.99,453.42c0,6.65-5.06,11.41-11.9,11.41h-21.72v-42.1h20.38c6.29,0,11.23,4.52,11.23,10.8,0,3.84-1.95,7.26-4.64,8.97,3.91,1.53,6.65,5.92,6.65,10.92Zm-24.47-22.15v7.93h8.85c2.14,0,3.91-1.71,3.91-3.97s-1.71-3.97-3.91-3.97h-8.85Zm14.77,20.5c0-2.56-1.95-4.58-4.52-4.58h-10.25v9.09h10.25c2.56,0,4.52-1.95,4.52-4.52Z"/>
    <path class="cls-7" d="m302.72,433.71v31.12h-8.91v-3.11c-2.38,2.44-5.61,3.84-9.4,3.84-8.54,0-15.01-7.02-15.01-16.29s6.47-16.29,15.01-16.29c3.78,0,7.02,1.4,9.4,3.84v-3.11h8.91Zm-8.91,15.56c0-4.39-3.23-7.69-7.63-7.69s-7.57,3.3-7.57,7.69,3.23,7.69,7.57,7.69,7.63-3.3,7.63-7.69Z"/>
    <path class="cls-7" d="m307.42,460.87l4.15-5.74c2.38,2.01,5.31,3.36,8.91,3.36,2.93,0,4.94-.85,4.94-2.5,0-1.77-2.38-2.38-5.55-3.11-4.94-1.1-11.47-2.56-11.47-9.88,0-6.71,5.86-10.01,12.94-10.01,5.49,0,9.46,1.95,12.39,4.09l-4.15,5.74c-2.32-1.59-4.88-2.75-7.93-2.75-2.38,0-4.33.67-4.33,2.26,0,1.77,2.38,2.32,5.55,2.99,4.88,1.04,11.47,2.56,11.47,9.82,0,6.83-5.98,10.43-13.55,10.43-5.92,0-10.31-2.2-13.36-4.7Z"/>
    <path class="cls-7" d="m338.11,424.26c0-3.11,2.38-5.43,5.49-5.43s5.55,2.32,5.55,5.43-2.38,5.49-5.55,5.49-5.49-2.32-5.49-5.49Zm1.04,9.46h8.91v31.12h-8.91v-31.12Z"/>
    <path class="cls-7" d="m354.58,452.39v-18.67h8.91v17.45c0,3.48,2.32,5.8,5.8,5.8s5.8-2.32,5.8-5.8v-17.45h8.91v18.67c0,7.93-5.8,13.18-14.71,13.18s-14.71-5.25-14.71-13.18Z"/>
    <path class="cls-7" d="m439.76,444.52v20.32h-8.91v-17.63c0-3.36-2.14-5.61-5.43-5.61s-5.8,2.32-5.8,5.74v17.51h-8.91v-17.63c0-3.36-2.14-5.61-5.43-5.61s-5.8,2.32-5.8,5.74v17.51h-8.91v-31.12h8.91v2.99c2.26-2.44,5.25-3.72,8.85-3.72,4.21,0,7.57,1.77,9.52,4.82,2.5-3.17,6.04-4.82,10.37-4.82,7.02,0,11.53,4.58,11.53,11.53Z"/>
  </g>
</svg>