<?xml version="1.0" encoding="UTF-8"?>
<svg id="Camada_1" data-name="Camada 1" xmlns="http://www.w3.org/2000/svg" xmlns:xlink="http://www.w3.org/1999/xlink" viewBox="0 0 235.06 76.8">
  <defs>
    <style>
      .cls-1 {
        fill: #fff7eb;
      }

      .cls-1, .cls-2, .cls-3, .cls-4, .cls-5, .cls-6 {
        stroke-width: 0px;
      }

      .cls-2 {
        fill: #0071bc;
      }

      .cls-3 {
        fill: #ff7122;
      }

      .cls-4 {
        fill: #006494;
      }

      .cls-5 {
        fill: #1b98e0;
      }

      .cls-6 {
        fill: none;
      }

      .cls-7 {
        clip-path: url(#clippath-1);
      }

      .cls-8 {
        clip-path: url(#clippath);
      }
    </style>
    <clipPath id="clippath">
      <rect class="cls-6" y="0" width="235.06" height="76.8"/>
    </clipPath>
    <clipPath id="clippath-1">
      <rect class="cls-6" y="0" width="235.06" height="76.8"/>
    </clipPath>
  </defs>
  <g id="MARCA">
    <g class="cls-8">
      <g class="cls-7">
        <path class="cls-1" d="m116.1,6.73c0,1.65-.57,3.04-1.72,4.15-1.15,1.12-2.54,1.68-4.19,1.68s-2.96-.56-4.07-1.68c-1.12-1.12-1.68-2.5-1.68-4.15s.56-3.04,1.68-4.15c1.12-1.12,2.48-1.68,4.07-1.68s3.05.56,4.19,1.68c1.14,1.12,1.72,2.5,1.72,4.15m-.64,50.08h-10.38V18.07h10.38v38.74Z"/>
        <path class="cls-1" d="m178.84,26.62c-1.76,0-3.7.25-5.83.76-2.13.51-3.94,1.11-5.43,1.8l-2.8-8.63c1.38-.9,3.59-1.72,6.63-2.44,3.04-.72,5.46-1.08,7.27-1.08,3.09,0,5.91.61,8.47,1.84,2.56,1.23,4.59,2.93,6.11,5.11,1.52,2.18,2.28,4.63,2.28,7.35v25.48h-9.42l-.82-2.52c-1.7,1.6-4.97,3.48-8.54,3.48-4.63,0-8.12-1.13-10.46-3.39-2.34-2.26-3.51-5.31-3.51-9.15s1.33-6.99,3.99-9.15c2.66-2.16,6.23-3.24,10.7-3.24h7.59c-.05-1.97-.63-3.5-1.72-4.59-1.09-1.09-2.6-1.64-4.51-1.64m-1.52,13.18c-1.71,0-3.08.53-4.11,1.6-1.04,1.07-1.56,2.34-1.56,3.83,0,1.17.47,2.18,1.4,3.04.93.85,2.12,1.28,3.55,1.28,3.09,0,5.94-1.28,8.55-3.83v-5.91h-7.83Z"/>
        <path class="cls-3" d="m200.35,9.15c.26-1.7,2.1-2.52,3.48-2.42.08,0,1.66.14,2.45,1.44.1.17.44.77.39,2.09-.02.4-.12,2.09-1.37,4.12-1.18,1.91-2.73,3.06-3.77,3.69l-.87-2.66c.55-.36,1.29-.97,1.89-1.91.21-.33.37-.65.5-.94-1.77-.25-2.94-1.87-2.7-3.41"/>
        <path class="cls-1" d="m218.92,57.77c-1.97,0-4.29-.35-6.95-1.04-2.66-.69-4.82-1.68-6.47-2.96l2.35-7.25c3.94,1.76,8.09,2.86,10.91,2.86,1.6,0,3.06-.29,4.39-.88,1.33-.58,2-1.41,2-2.48,0-2.08-2.26-3.81-6.79-5.19-3.67-1.22-6.74-2.8-9.19-4.71-2.45-1.92-3.67-4.34-3.67-7.27,0-3.67,1.36-6.56,4.07-8.67,2.72-2.1,6.39-3.16,11.02-3.16,1.81,0,4.02.37,6.63,1.12,2.61.75,4.82,1.73,6.63,2.96l-2.37,7.32c-2.02-.9-4.57-1.94-6.14-2.36-1.57-.43-3.21-.64-4.91-.64-1.33,0-2.44.33-3.32,1-.88.67-1.32,1.45-1.32,2.36,0,.69.52,1.32,1.56,1.88,1.04.56,2.54,1.19,4.51,1.88,3.78,1.39,6.92,3.14,9.43,5.27,2.5,2.13,3.75,4.74,3.75,7.83,0,3.89-1.39,6.88-4.15,8.99-2.77,2.1-6.76,3.16-11.98,3.16"/>
        <polygon class="cls-1" points="64.45 18.07 95.57 18.07 95.57 23.85 74.29 48.42 95.57 48.42 95.57 56.81 67.42 56.81 64.12 46.62 81.52 26.62 67.22 26.62 64.45 18.07"/>
        <polygon class="cls-1" points="135.35 0 135.35 56.39 125.05 56.39 125.05 .88 135.35 0"/>
        <polygon class="cls-1" points="155.24 0 155.24 56.81 144.94 56.81 144.94 .88 155.24 0"/>
        <path class="cls-5" d="m55.52,32.87c0,2.14-.24,4.23-.7,6.23h-24.29l2.02-6.23h0s2.02-6.24,2.02-6.24h0l2.77-8.55,3.19-9.86s0,0,0,0c8.9,4.62,14.98,13.92,14.98,24.64"/>
        <path class="cls-1" d="m27.76,47.65h23.5c-2.63,4.17-6.33,7.59-10.72,9.87-2.67,1.39-5.59,2.35-8.67,2.81-1.34.2-2.71.3-4.11.3s-2.76-.1-4.1-.3l4.11-12.67h0Z"/>
        <path class="cls-3" d="m27.76,18.09H4.26c2.62-4.16,6.33-7.58,10.71-9.86,2.67-1.39,5.59-2.35,8.68-2.81,1.34-.2,2.71-.3,4.1-.3s2.76.1,4.1.3l-4.1,12.66h0Z"/>
        <path class="cls-4" d="m24.99,26.64l-2.02,6.24-7.99,24.65C6.08,52.9,0,43.6,0,32.87,0,30.73.24,28.64.7,26.64h24.28Z"/>
        <polyline class="cls-2" points="27.76 47.66 27.76 47.66 27.75 47.65"/>
        <path class="cls-3" d="m173.31,68.06c0,.94-.18,1.76-.54,2.47-.36.71-.89,1.27-1.58,1.66-.69.39-1.51.59-2.45.59-.5,0-1.04-.14-1.61-.42v4.45h-2.38v-13.2h1.22l.48.61c.73-.57,1.51-.85,2.36-.85,1.39,0,2.49.42,3.29,1.26.81.84,1.21,1.98,1.21,3.42m-2.47,0c0-.79-.19-1.42-.56-1.91-.38-.49-.9-.73-1.56-.73-.52,0-1.05.18-1.59.54v4.26c.5.34,1.03.52,1.59.52.65,0,1.17-.25,1.55-.75.38-.5.57-1.14.57-1.93"/>
        <path class="cls-3" d="m185.41,65.97c-.6.3-1.15.67-1.67,1.13v5.46h-2.4v-8.95h1.26l.79,1.5c.43-.38.93-.73,1.51-1.03.58-.31,1.09-.46,1.53-.46l.76,1.93c-.41,0-1.19.13-1.78.43"/>
        <path class="cls-3" d="m197.64,60.99c0,.38-.13.7-.4.96-.26.26-.59.39-.97.39s-.68-.13-.94-.39c-.26-.26-.39-.58-.39-.96s.13-.7.39-.96c.26-.26.57-.39.94-.39s.7.13.97.39c.26.26.4.58.4.96m-.15,11.57h-2.4v-8.95h2.4v8.95Z"/>
        <path class="cls-3" d="m219.5,66.58v5.98h-2.4v-5.5c0-.58-.09-1.02-.27-1.31-.18-.29-.46-.44-.84-.44s-.71.09-1.01.26c-.31.17-.7.43-1.18.78v6.22h-2.4v-5.5c0-.58-.09-1.02-.27-1.31-.18-.29-.46-.44-.84-.44s-.71.09-1.01.26c-.31.17-.71.44-1.2.79v6.2h-2.4v-8.95h1.65l.32.96c.55-.39,1.13-.7,1.72-.92.59-.22,1.11-.33,1.55-.33,1.22,0,2.04.41,2.47,1.22.55-.38,1.12-.68,1.7-.89.58-.22,1.09-.32,1.53-.32,1.02,0,1.76.27,2.21.82s.67,1.36.67,2.45"/>
        <path class="cls-3" d="m230.94,63.37c.9,0,1.66.21,2.27.63.62.42,1.07.98,1.37,1.69.29.71.44,1.5.44,2.37v.74h-6.04c.12.63.39,1.11.8,1.44.41.33,1.04.5,1.89.5.49,0,.93-.07,1.33-.2.39-.14.82-.33,1.27-.59l.7,1.73c-.46.36-.95.63-1.48.82-.53.19-1.16.29-1.88.29-1.7,0-2.99-.41-3.87-1.25-.88-.83-1.32-1.98-1.32-3.44,0-.95.18-1.78.54-2.49.36-.71.88-1.26,1.56-1.65.68-.39,1.48-.58,2.4-.58m-.05,2.05c-.49,0-.9.15-1.24.45-.33.3-.55.74-.65,1.32h3.75c-.12-.59-.34-1.03-.66-1.33-.31-.3-.72-.44-1.21-.44"/>
      </g>
    </g>
  </g>
</svg>